<svg width="25" height="147" viewBox="0 0 25 147" fill="none" xmlns="http://www.w3.org/2000/svg">
<rect x="11.2163" y="96.3326" width="0.997664" height="49.8832" fill="#2AAA94"/>
<rect x="11.2163" y="0.556839" width="0.997664" height="49.8832" fill="#2AAA94"/>
<circle cx="12.2142" cy="73.3863" r="11.972" fill="#81C7A2"/>
<path d="M8.22363 76.3793V74.5415C8.22363 73.9834 8.31996 73.3912 8.5126 72.765C8.71189 72.132 8.99754 71.5228 9.36954 70.9374C9.74819 70.3452 10.2032 69.8313 10.7347 69.3957L12.0101 70.4575C11.5916 71.0701 11.2263 71.7099 10.914 72.377C10.6085 73.0372 10.4557 73.7451 10.4557 74.5007V76.3793H8.22363ZM13.3254 76.3793V74.5415C13.3254 73.9834 13.4218 73.3912 13.6144 72.765C13.8137 72.132 14.0993 71.5228 14.4713 70.9374C14.85 70.3452 15.305 69.8313 15.8365 69.3957L17.1119 70.4575C16.6934 71.0701 16.328 71.7099 16.0158 72.377C15.7103 73.0372 15.5575 73.7451 15.5575 74.5007V76.3793H13.3254Z" fill="white"/>
</svg>
