<svg width="118" height="120" viewBox="0 0 118 120" fill="none" xmlns="http://www.w3.org/2000/svg">
<path d="M116.069 67.182C115.471 64.9241 114.853 62.5914 114.823 60.3285C114.798 58.1752 115.357 55.9073 115.9 53.7141C116.648 50.6487 117.43 47.4786 116.658 44.5976C115.885 41.7066 113.627 39.3589 111.444 37.086C109.879 35.4514 108.254 33.7664 107.202 31.8873C106.091 29.9084 105.458 27.5857 104.849 25.3377C104.002 22.2025 103.205 19.2467 101.236 17.2081C99.212 15.1097 96.1067 14.1576 93.1011 13.2206C90.9179 12.5576 88.665 11.8698 86.7908 10.7283C84.9067 9.58691 83.2419 7.89718 81.627 6.26229C79.4288 4.03923 77.1509 1.73144 74.3646 0.913989C73.5372 0.674737 72.6649 0.560095 71.678 0.560095C69.6543 0.560095 67.4811 1.07848 65.3727 1.56197C63.1945 2.07536 60.9416 2.59374 58.7733 2.59374L58.6387 2.58378C56.5154 2.56384 54.2873 1.98564 52.1341 1.42739C49.9307 0.854176 47.6481 0.261028 45.4896 0.261028C44.5674 0.261028 43.74 0.365701 42.9425 0.575048C40.0316 1.34764 37.6789 3.67038 35.406 5.89842C33.821 7.47351 32.1861 9.08348 30.3568 10.1701C28.4528 11.2966 26.1848 11.9844 23.9967 12.6424C20.8565 13.5944 17.8858 14.5016 15.892 16.5751C13.8882 18.6636 13.0658 21.8087 12.2683 24.8443C11.7001 27.0623 11.1019 29.3602 10.0403 31.2891C8.98854 33.2081 7.38355 34.9477 5.82342 36.6125C3.69008 38.9153 1.47201 41.2929 0.774188 44.134C0.0913209 46.8854 0.873877 49.8412 1.70628 52.9714C2.29943 55.2244 2.92248 57.5521 2.9474 59.82C2.97183 61.9733 2.41407 64.2462 1.87575 66.4344C1.1231 69.5048 0.345527 72.6699 1.11811 75.5509C1.88572 78.4319 4.14367 80.7945 6.32685 83.0625C7.89695 84.6924 9.51689 86.3821 10.5636 88.2612C11.6801 90.2401 12.3132 92.5578 12.9213 94.8158C13.7686 97.946 14.5711 100.897 16.53 102.935C18.5587 105.044 21.664 105.991 24.6696 106.918C26.8528 107.591 29.1107 108.284 30.9799 109.425C32.864 110.567 34.5338 112.251 36.1388 113.881C38.3419 116.119 40.6247 118.422 43.4061 119.235C44.2285 119.469 45.1008 119.583 46.0877 119.583C48.1114 119.583 50.2896 119.08 52.393 118.597C54.5762 118.078 56.8291 117.56 58.9974 117.56H59.1419C61.2603 117.591 63.4933 118.163 65.6416 118.716C67.8398 119.299 70.1226 119.887 72.2859 119.887C73.208 119.887 74.0357 119.788 74.8279 119.578C77.7438 118.791 80.0915 116.483 82.3644 114.24C83.9495 112.68 85.5943 111.07 87.4136 109.983C89.3227 108.857 91.5906 108.164 93.7738 107.501C96.914 106.549 99.8797 105.652 101.878 103.573C103.882 101.47 104.705 98.3398 105.497 95.2993C106.075 93.0911 106.673 90.7983 107.73 88.8594C108.782 86.9404 110.397 85.2108 111.947 83.536C114.08 81.2382 116.298 78.8606 117.006 76.0195C117.684 73.2681 116.902 70.3123 116.069 67.182H116.069ZM58.888 112.022C30.9153 112.022 8.24611 88.7597 8.24611 60.0693C8.24611 31.3888 30.9153 8.12647 58.888 8.12647C86.8606 8.12647 109.53 31.3888 109.53 60.0693C109.53 88.7597 86.8606 112.022 58.8882 112.022M58.8982 13.4648C33.1586 13.4648 12.2887 34.3346 12.2887 60.0695C12.2887 85.8141 33.1588 106.684 58.8982 106.684C84.6428 106.684 105.513 85.8141 105.513 60.0695C105.513 34.3349 84.6428 13.4648 58.8982 13.4648ZM52.4284 30.0184C52.4284 28.9218 53.3056 28.0445 54.3923 28.0445H64.2265C65.3082 28.0445 66.1904 28.9268 66.1904 30.0184V38.3673C66.1904 39.4639 65.3131 40.3312 64.2265 40.3312H54.3923C53.3056 40.3312 52.4284 39.4639 52.4284 38.3673V30.0184ZM73.5674 88.0023C73.5674 89.0939 72.6801 89.9764 71.5985 89.9764H47.0253C45.9387 89.9764 45.0564 89.0941 45.0564 88.0025V79.1646C45.0564 78.0681 45.9387 77.1958 47.0253 77.1958H52.4284V59.4911H47.0253C45.9387 59.4911 45.0564 58.6138 45.0564 57.5272V49.1783C45.0564 48.0817 45.9387 47.2094 47.0253 47.2094H64.2315C65.3131 47.2094 66.1954 48.0817 66.1954 49.1783V77.1908H71.6035C72.6851 77.1908 73.5724 78.0631 73.5724 79.1596V88.002L73.5674 88.0023Z" fill="#0B7077"/>
</svg>
