<svg width="97" height="112" viewBox="0 0 97 112" fill="none" xmlns="http://www.w3.org/2000/svg">
<path fill-rule="evenodd" clip-rule="evenodd" d="M15.9267 0.396048L64.9703 0.371152V19.4824L15.9267 19.5073C13.7116 19.5098 11.5538 18.8032 9.7693 17.4908L1.81941 11.6238C1.55858 11.4309 1.34663 11.1795 1.20057 10.8898C1.05451 10.6001 0.978431 10.2802 0.978431 9.95582C0.978431 9.6314 1.05451 9.3115 1.20057 9.02182C1.34663 8.73214 1.55858 8.48075 1.81941 8.28784L9.77759 2.41256C11.5565 1.10059 13.708 0.39117 15.9184 0.387749L15.9267 0.396048ZM85.1604 19.4658L75.3434 19.4741V0.362854H85.1936C90.4548 0.445838 94.4795 5.11785 94.4795 9.90603C94.4795 14.7025 90.4548 19.3828 85.1936 19.4658H85.1604ZM35.9425 38.6351C38.7225 39.7471 41.0875 40.967 43.1372 42.1786V111.786C39.975 109.409 36.5156 107.456 32.8472 105.977C26.7479 103.537 17.9515 101.521 4.533 101.521C3.43256 101.521 2.37719 101.083 1.59906 100.305C0.820936 99.5271 0.383789 98.4717 0.383789 97.3713V37.7223C0.383789 36.6219 0.820936 35.5665 1.59906 34.7884C2.37719 34.0103 3.43256 33.5731 4.533 33.5731C18.8063 33.5731 28.6814 35.7224 35.9425 38.6351ZM63.792 105.977C59.3108 107.778 56.1657 109.844 53.5019 111.777V42.1786C55.5516 40.967 57.925 39.7471 60.705 38.6351C67.9661 35.7224 77.8412 33.5731 92.1145 33.5731C93.2149 33.5731 94.2703 34.0103 95.0484 34.7884C95.8265 35.5665 96.2637 36.6219 96.2637 37.7223V97.3713C96.2637 98.4717 95.8265 99.5271 95.0484 100.305C94.2703 101.083 93.2149 101.521 92.1145 101.521C78.6959 101.521 69.8996 103.529 63.792 105.977Z" fill="#0B7077"/>
</svg>
