<svg width="101" height="100" viewBox="0 0 101 100" fill="none" xmlns="http://www.w3.org/2000/svg">
<path d="M61.7006 78.6855C62.6958 78.6855 63.5665 78.3123 64.3129 77.566C65.0593 76.8196 65.4325 75.9488 65.4325 74.9536C65.4325 73.9585 65.0593 73.0877 64.3129 72.3413C63.5665 71.5949 62.6958 71.2217 61.7006 71.2217C60.7054 71.2217 59.8346 71.5949 59.0883 72.3413C58.3419 73.0877 57.9687 73.9585 57.9687 74.9536C57.9687 75.9488 58.3419 76.8196 59.0883 77.566C59.8346 78.3123 60.7054 78.6855 61.7006 78.6855ZM75.3843 78.6855C76.3794 78.6855 77.2502 78.3123 77.9966 77.566C78.743 76.8196 79.1162 75.9488 79.1162 74.9536C79.1162 73.9585 78.743 73.0877 77.9966 72.3413C77.2502 71.5949 76.3794 71.2217 75.3843 71.2217C74.3891 71.2217 73.5183 71.5949 72.7719 72.3413C72.0255 73.0877 71.6523 73.9585 71.6523 74.9536C71.6523 75.9488 72.0255 76.8196 72.7719 77.566C73.5183 78.3123 74.3891 78.6855 75.3843 78.6855ZM89.0679 78.6855C90.0631 78.6855 90.9339 78.3123 91.6803 77.566C92.4266 76.8196 92.7998 75.9488 92.7998 74.9536C92.7998 73.9585 92.4266 73.0877 91.6803 72.3413C90.9339 71.5949 90.0631 71.2217 89.0679 71.2217C88.0727 71.2217 87.202 71.5949 86.4556 72.3413C85.7092 73.0877 85.336 73.9585 85.336 74.9536C85.336 75.9488 85.7092 76.8196 86.4556 77.566C87.202 78.3123 88.0727 78.6855 89.0679 78.6855ZM75.3843 99.833C68.501 99.833 62.6344 97.4064 57.7846 92.5533C52.9348 87.7002 50.5082 81.8336 50.5049 74.9536C50.5015 68.0736 52.9281 62.2071 57.7846 57.3539C62.641 52.5008 68.5076 50.0742 75.3843 50.0742C82.2609 50.0742 88.1291 52.5008 92.9889 57.3539C97.8487 62.2071 100.274 68.0736 100.264 74.9536C100.254 81.8336 97.8271 87.7018 92.9839 92.5583C88.1407 97.4147 82.2742 99.8397 75.3843 99.833ZM20.6496 30.1707H70.4084V20.219H20.6496V30.1707ZM43.9118 89.8813H10.6978C7.96112 89.8813 5.61914 88.9076 3.67191 86.9604C1.72468 85.0132 0.749411 82.6696 0.746094 79.9295V10.2672C0.746094 7.53048 1.72137 5.1885 3.67191 3.24128C5.62245 1.29405 7.96443 0.318777 10.6978 0.31546H80.3601C83.0969 0.31546 85.4405 1.29073 87.391 3.24128C89.3416 5.19182 90.3152 7.5338 90.3119 10.2672V43.6056C87.9069 42.4446 85.4803 41.5738 83.0322 40.9933C80.584 40.4127 78.0347 40.1225 75.3843 40.1225C74.472 40.1225 73.6211 40.1424 72.8316 40.1822C72.0421 40.222 71.2344 40.3265 70.4084 40.4957V40.1225H20.6496V50.0742H51.1269C49.6341 51.4841 48.2873 53.0183 47.0864 54.6769C45.8856 56.3356 44.8274 58.1186 43.9118 60.026H20.6496V69.9778H40.9263C40.7604 70.8071 40.6576 71.6165 40.6178 72.406C40.578 73.1955 40.5564 74.0447 40.5531 74.9536C40.5531 77.6904 40.8019 80.2413 41.2995 82.6065C41.7971 84.9717 42.6679 87.3966 43.9118 89.8813Z" fill="#0B7077"/>
</svg>
