<svg width="81" height="76" viewBox="0 0 81 76" fill="none" xmlns="http://www.w3.org/2000/svg">
<path d="M9.58827 0.759949C7.1243 0.759949 4.76125 1.73876 3.01895 3.48105C1.27666 5.22334 0.297852 7.5864 0.297852 10.0504V32.6904C3.4437 28.6833 7.99948 26.0269 13.0363 25.2629C18.0731 24.4989 23.2117 25.6848 27.4043 28.5788C31.597 31.4728 34.5279 35.857 35.5996 40.8375C36.6712 45.8179 35.8029 51.0196 33.1717 55.3819V60.7904H71.048C73.512 60.7904 75.875 59.8116 77.6173 58.0693C79.3596 56.327 80.3384 53.9639 80.3384 51.5V10.0504C80.3384 7.5864 79.3596 5.22334 77.6173 3.48105C75.875 1.73876 73.512 0.759949 71.048 0.759949H9.58827ZM20.308 17.9115H60.3283C61.0864 17.9115 61.8135 18.2127 62.3496 18.7488C62.8857 19.2849 63.1869 20.0119 63.1869 20.7701C63.1869 21.5282 62.8857 22.2553 62.3496 22.7914C61.8135 23.3275 61.0864 23.6287 60.3283 23.6287H20.308C19.5498 23.6287 18.8228 23.3275 18.2867 22.7914C17.7506 22.2553 17.4494 21.5282 17.4494 20.7701C17.4494 20.0119 17.7506 19.2849 18.2867 18.7488C18.8228 18.2127 19.5498 17.9115 20.308 17.9115ZM40.3181 40.7802C40.3181 40.0221 40.6193 39.295 41.1554 38.7589C41.6915 38.2228 42.4186 37.9216 43.1767 37.9216H60.3283C61.0864 37.9216 61.8135 38.2228 62.3496 38.7589C62.8857 39.295 63.1869 40.0221 63.1869 40.7802C63.1869 41.5384 62.8857 42.2655 62.3496 42.8016C61.8135 43.3377 61.0864 43.6388 60.3283 43.6388H43.1767C42.4186 43.6388 41.6915 43.3377 41.1554 42.8016C40.6193 42.2655 40.3181 41.5384 40.3181 40.7802ZM31.7424 45.0681C31.7424 49.2379 30.0859 53.2369 27.1374 56.1854C24.1889 59.1339 20.1899 60.7904 16.0201 60.7904C11.8503 60.7904 7.85129 59.1339 4.90279 56.1854C1.9543 53.2369 0.297852 49.2379 0.297852 45.0681C0.297852 40.8983 1.9543 36.8993 4.90279 33.9508C7.85129 31.0023 11.8503 29.3459 16.0201 29.3459C20.1899 29.3459 24.1889 31.0023 27.1374 33.9508C30.0859 36.8993 31.7424 40.8983 31.7424 45.0681ZM28.8838 60.3959C25.2835 63.427 20.7264 65.0857 16.0201 65.0783C11.3138 65.0857 6.75675 63.427 3.15644 60.3959V72.2247C3.15657 72.7344 3.29294 73.2347 3.55143 73.674C3.80993 74.1132 4.18115 74.4753 4.62664 74.7228C5.07213 74.9704 5.5757 75.0943 6.08519 75.0818C6.59468 75.0693 7.09156 74.9208 7.52437 74.6517L16.0201 69.3633L24.5158 74.6517C24.9489 74.9209 25.446 75.0694 25.9557 75.0818C26.4655 75.0942 26.9692 74.97 27.4148 74.7221C27.8604 74.4743 28.2316 74.1117 28.4899 73.6721C28.7482 73.2325 28.8842 72.7318 28.8838 72.2219V60.3959Z" fill="#0B7077"/>
</svg>
