<svg width="73" height="78" viewBox="0 0 73 78" fill="none" xmlns="http://www.w3.org/2000/svg">
<path d="M17.8712 55.291L33.0526 63.5718V73.4507H7.6291C3.59766 73.4507 0.365234 70.2183 0.365234 66.1868V8.07588C0.365234 6.14938 1.13053 4.30179 2.49277 2.93955C3.85501 1.57731 5.7026 0.812012 7.6291 0.812012H11.261V26.2355L20.3409 20.7876L29.4207 26.2355V0.812012H51.2123C53.1388 0.812012 54.9864 1.57731 56.3486 2.93955C57.7109 4.30179 58.4762 6.14938 58.4762 8.07588V39.0926L53.0283 36.1144L17.8712 55.291ZM73.0039 55.291L53.0283 44.3952L33.0526 55.291L53.0283 66.1868L73.0039 55.291ZM40.3165 62.8818V70.1456L53.0283 77.0826L65.74 70.1456V62.8818L53.0283 69.8187L40.3165 62.8818Z" fill="#0B7077"/>
</svg>
