<svg width="98" height="59" viewBox="0 0 98 59" fill="none" xmlns="http://www.w3.org/2000/svg">
<path d="M28.0065 21.5164C28.0065 22.7334 28.1039 23.707 28.3473 24.5346C28.5907 25.1188 28.9315 25.8977 29.3696 26.7739C29.5643 26.9686 29.613 27.2607 29.613 27.5041C29.613 27.8449 29.4183 28.137 28.9802 28.4777L26.9356 29.8408C26.6435 30.0355 26.3514 30.1329 26.108 30.1329C25.7672 30.1329 25.4751 29.9382 25.1344 29.6461C24.6963 29.1593 24.3068 28.6725 23.966 28.137C23.674 27.6015 23.3332 26.9686 22.9924 26.2384C20.461 29.2079 17.2968 30.717 13.451 30.717C10.7249 30.717 8.58298 29.9382 6.97652 28.3804C5.41874 26.8226 4.59117 24.7293 4.59117 22.1006C4.59117 19.4231 5.56479 17.2325 7.51201 15.48C9.50791 13.8249 12.1367 12.9486 15.4469 12.9486C16.5666 12.9486 17.5889 13.046 18.9033 13.2407C20.0229 13.3868 21.3373 13.6302 22.603 13.9222V11.5856C22.603 9.10286 22.1162 7.4964 21.0939 6.37675C20.0229 5.35446 18.3191 4.91633 15.8364 4.91633C14.6681 4.91633 13.4997 5.06238 12.3314 5.30578C11.1144 5.59786 9.94604 5.93863 8.82639 6.42543C8.2909 6.62015 7.85277 6.7662 7.70673 6.81488C7.46333 6.91224 7.31729 6.91224 7.17125 6.91224C6.73312 6.91224 6.48972 6.62015 6.48972 5.93862V4.33217C6.48972 3.84536 6.5384 3.45591 6.73312 3.21251C6.87916 2.96911 7.17125 2.77439 7.60937 2.62835C8.77771 1.94682 10.0921 1.46001 11.6985 1.07057C13.3511 0.638478 15.0533 0.425705 16.7613 0.43772C20.6071 0.43772 23.4306 1.31397 25.2317 3.06647C27.0329 4.81897 27.9092 7.4964 27.9092 11.0501V21.5164H28.0065ZM14.8628 26.4818C15.9338 26.4818 17.0047 26.2871 18.1731 25.8977C19.3414 25.5082 20.3637 24.778 21.2399 23.8044C21.7754 23.1716 22.1649 22.49 22.457 21.7111C22.457 20.9322 22.7004 20.0073 22.7004 18.8877V17.5733C21.7267 17.2325 20.7531 17.2325 19.6822 16.9891C18.6795 16.8796 17.6724 16.8146 16.664 16.7944C14.4733 16.7944 12.9156 17.2325 11.8446 18.1088C10.7736 18.985 10.2868 20.202 10.2868 21.8085C10.2868 23.3663 10.6276 24.5346 11.4551 25.2648C12.234 26.0924 13.3537 26.4818 14.8628 26.4818ZM40.8582 29.9382C40.3869 29.9522 39.9193 29.852 39.4952 29.6461C39.3491 29.4027 39.1057 28.9645 38.911 28.3804L31.3168 3.35855C31.1221 2.62835 31.0247 2.28758 31.0247 2.04418C31.0247 1.50869 31.2681 1.21661 31.8036 1.21661H34.9679C35.6007 1.21661 36.0388 1.31397 36.2336 1.55737C36.5256 1.7521 36.7204 2.19022 36.9151 2.82307L42.3186 24.2425L47.3814 2.82307C47.5275 2.19022 47.7222 1.7521 48.0143 1.55737C48.2577 1.36265 48.6958 1.21661 49.2313 1.21661H51.9087C52.4929 1.21661 52.931 1.31397 53.1744 1.55737C53.4178 1.7521 53.6612 2.19022 53.8072 2.82307L58.9674 24.5346L64.517 2.82307C64.7117 2.19022 64.9551 1.7521 65.1498 1.55737C65.4419 1.36265 65.8314 1.21661 66.4155 1.21661H69.4337C69.9692 1.21661 70.2613 1.50869 70.2613 2.04418C70.2613 2.19022 70.2126 2.38494 70.1639 2.62835C70.1639 2.62835 70.0666 3.01779 69.9692 3.35855L62.1316 28.3804C61.9369 29.0619 61.7422 29.4027 61.4014 29.6461C61.2067 29.8408 60.7686 29.9868 60.2331 29.9868H57.4583C56.8254 29.9868 56.5334 29.8895 56.1439 29.6461C55.8166 29.299 55.6115 28.8546 55.5597 28.3804L50.5457 7.4964L45.5315 28.3317C45.3855 28.9645 45.1908 29.4027 44.9474 29.6461C44.5454 29.8651 44.0899 29.9663 43.633 29.9382H40.8582ZM82.4801 30.8144C80.8737 30.8144 79.0725 30.6197 77.466 30.2302C75.8596 29.8408 74.5939 29.4027 73.7663 28.9645C73.3435 28.7612 72.9885 28.44 72.744 28.0396C72.6117 27.7667 72.5451 27.4666 72.5493 27.1634V25.5082C72.5493 24.8267 72.7927 24.5346 73.2795 24.5346H73.8636C74.0584 24.5346 74.3505 24.778 74.6912 24.9241C75.7622 25.4109 76.9792 25.8003 78.2449 26.0437C79.5593 26.2871 80.8737 26.4332 82.0907 26.4332C84.1353 26.4332 85.7417 26.0924 86.8127 25.3622C87.9323 24.5346 88.5165 23.6097 88.5165 22.2953C88.5165 21.3704 88.1757 20.6402 87.6403 20.0073C87.0561 19.4231 85.9364 18.839 84.3787 18.3522L79.6566 16.8918C77.32 16.1129 75.5675 15.0419 74.4965 13.5815C73.4514 12.2296 72.8861 10.5682 72.89 8.85946C72.89 7.49641 73.1821 6.32807 73.7663 5.30578C74.3505 4.23481 75.1293 3.35855 76.0056 2.62835C77.0766 1.89814 78.1475 1.36265 79.4619 0.973205C80.7276 0.58376 82.0907 0.389038 83.5511 0.389038C84.2326 0.389038 84.9628 0.43772 85.7417 0.535081C86.4232 0.632442 87.1048 0.778482 87.7863 0.875843C88.4678 1.07057 89.052 1.21661 89.6362 1.41133C90.2203 1.60605 90.6098 1.80077 90.9992 1.9955C91.4373 2.2389 91.7781 2.4823 91.9728 2.77439C92.1676 3.06647 92.2649 3.40723 92.2649 3.84536V5.40314C92.2649 6.08467 92.0215 6.42543 91.5347 6.42543C91.2913 6.42543 90.8532 6.27939 90.269 6.03599C88.4678 5.20842 86.3746 4.77029 84.0866 4.77029C82.2367 4.77029 80.8737 5.06238 79.754 5.69522C78.7804 6.27939 78.2449 7.253 78.2449 8.56738C78.2449 9.49231 78.5857 10.2712 79.2185 10.8554C79.8514 11.4882 81.0684 12.0724 82.7722 12.6565L87.3969 14.117C89.7335 14.7985 91.3887 15.8695 92.411 17.2325C93.3846 18.5469 93.8714 20.056 93.8714 21.7598C93.8714 23.1229 93.5793 24.3886 93.0438 25.5082C92.4596 26.5792 91.6807 27.5528 90.6098 28.3317C89.6848 29.1593 88.4678 29.7434 87.1048 30.1816C85.7417 30.6197 84.0866 30.8144 82.4801 30.8144ZM88.5652 46.5869C77.9041 54.4245 62.4237 58.611 49.2313 58.611C30.4892 58.611 13.6944 51.6984 0.988811 40.2584C-0.0334817 39.3335 0.89145 38.1165 2.10846 38.8467C15.8364 46.7816 32.7286 51.601 50.2536 51.601C62.083 51.601 75.0807 49.167 87.0074 44.0068C88.8086 43.2766 90.3177 45.2725 88.5652 46.5869ZM93.0438 41.5728C91.6321 39.7716 83.9892 40.6966 80.5329 41.086C79.5106 41.232 79.3646 40.3071 80.2895 39.6256C86.3746 35.3904 96.4028 36.7048 97.5224 38.0191C98.6908 39.4796 97.2303 49.5078 91.5347 54.2785C90.6098 55.0087 89.7822 54.6192 90.1716 53.743C91.486 50.4327 94.3582 43.228 93.0438 41.5728Z" fill="white"/>
</svg>
