<svg width="79" height="75" viewBox="0 0 79 75" fill="none" xmlns="http://www.w3.org/2000/svg">
<path fill-rule="evenodd" clip-rule="evenodd" d="M78.5154 67.6393L57.2905 3.96445C56.9213 2.86616 56.2028 1.91891 55.2446 1.26737C54.2865 0.61583 53.1414 0.29582 51.9843 0.356215H26.8327C25.7203 0.353344 24.6351 0.70016 23.7306 1.34764C22.826 1.99513 22.1478 2.91052 21.7918 3.96445L0.301566 67.6393C0.0228884 68.4603 -0.0503466 69.3371 0.0882676 70.193C0.226882 71.0489 0.573122 71.8578 1.0967 72.5489C1.62027 73.2401 2.30523 73.7923 3.09164 74.1575C3.87806 74.5226 4.74197 74.6895 5.6078 74.6435H21.1551C22.2584 74.6353 23.3318 74.2834 24.2257 73.6366C25.1197 72.9899 25.7899 72.0806 26.1429 71.0352L29.3797 61.5902L45.2984 73.6353C46.2235 74.3053 47.3401 74.6588 48.4822 74.6435H73.3153C74.1724 74.6716 75.0235 74.4915 75.7958 74.1188C76.568 73.746 77.2385 73.1917 77.7496 72.5032C78.2608 71.8146 78.5975 71.0125 78.7309 70.1654C78.8642 69.3183 78.7903 68.4515 78.5154 67.6393ZM48.6944 71.1414C48.3087 71.1417 47.9345 71.0107 47.6332 70.7699L17.6529 48.5368L17.1754 48.1654H33.0941L33.5186 47.0511L38.8248 33.6263L50.7108 68.8066C50.8063 69.1016 50.8242 69.4162 50.7627 69.7201C50.7012 70.024 50.5624 70.3069 50.3598 70.5416C50.1571 70.7762 49.8974 70.9547 49.6057 71.0598C49.314 71.1648 49.0001 71.1929 48.6944 71.1414ZM73.4745 71.1414H53.7353C54.1317 70.0076 54.1317 68.773 53.7353 67.6393L32.2451 3.96445H51.9843C52.359 3.96634 52.7238 4.08487 53.0281 4.30358C53.3324 4.52228 53.561 4.83031 53.6823 5.18489L75.1725 68.8597C75.2452 69.1241 75.2566 69.4015 75.206 69.671C75.1553 69.9405 75.0439 70.1949 74.8802 70.4148C74.7165 70.6348 74.5048 70.8145 74.2613 70.9404C74.0177 71.0663 73.7486 71.135 73.4745 71.1414Z" fill="white"/>
</svg>
