<svg width="69" height="85" viewBox="0 0 69 85" fill="none" xmlns="http://www.w3.org/2000/svg">
<path d="M34.4842 63.3428C35.6806 63.3428 36.6841 62.9374 37.4947 62.1267C38.3054 61.316 38.7094 60.314 38.7065 59.1204V42.2312C38.7065 41.0349 38.3012 40.0328 37.4905 39.225C36.6798 38.4171 35.6777 38.0117 34.4842 38.0089C33.2907 38.0061 32.2886 38.4115 31.478 39.225C30.6673 40.0385 30.2619 41.0405 30.2619 42.2312V59.1204C30.2619 60.3168 30.6673 61.3203 31.478 62.131C32.2886 62.9416 33.2907 63.3456 34.4842 63.3428ZM34.4842 29.5643C35.6806 29.5643 36.6841 29.159 37.4947 28.3483C38.3054 27.5376 38.7094 26.5355 38.7065 25.342C38.7037 24.1485 38.2984 23.1464 37.4905 22.3357C36.6827 21.5251 35.6806 21.1197 34.4842 21.1197C33.2879 21.1197 32.2858 21.5251 31.478 22.3357C30.6701 23.1464 30.2648 24.1485 30.2619 25.342C30.2591 26.5355 30.6645 27.539 31.478 28.3525C32.2915 29.166 33.2936 29.57 34.4842 29.5643ZM34.4842 84.032C33.9916 84.032 33.5342 83.9969 33.112 83.9265C32.6898 83.8561 32.2675 83.7506 31.8453 83.6098C22.3451 80.4431 14.7802 74.5839 9.15042 66.0324C3.52068 57.4808 0.705811 48.2804 0.705811 38.4312V18.4808C0.705811 16.7215 1.21671 15.1381 2.23851 13.7307C3.2603 12.3232 4.57907 11.3029 6.19481 10.6695L31.5286 1.16933C32.5138 0.81747 33.499 0.641541 34.4842 0.641541C35.4694 0.641541 36.4547 0.81747 37.4399 1.16933L62.7737 10.6695C64.3922 11.3029 65.7124 12.3232 66.7342 13.7307C67.756 15.1381 68.2655 16.7215 68.2627 18.4808V38.4312C68.2627 48.2832 65.4478 57.485 59.8181 66.0366C54.1883 74.5882 46.6234 80.4459 37.1232 83.6098C36.701 83.7506 36.2787 83.8561 35.8565 83.9265C35.4343 83.9969 34.9768 84.032 34.4842 84.032Z" fill="#0B7077"/>
</svg>
