<svg width="89" height="85" viewBox="0 0 89 85" fill="none" xmlns="http://www.w3.org/2000/svg">
<path d="M66.6562 0.83477C66.4458 0.83292 66.235 0.836066 66.02 0.840322C63.564 0.890283 60.8043 1.35603 57.5892 2.34397C53.4443 3.6176 50.5428 7.50236 50.9566 11.6538C51.2563 14.6773 53.7666 17.9716 56.6697 20.0963C61.2336 23.4355 64.4951 26.878 66.7313 30.1699L68.1423 39.2079L71.56 38.6699L70.6229 32.6678C70.375 28.4118 69.1463 24.2088 66.4887 19.8823C69.1792 21.5089 71.5515 23.2982 73.5258 25.0924L78.7477 35.4029L81.8298 33.8415L76.9206 24.1442C75.5979 20.9343 73.6186 17.9181 70.6694 15.0716C73.6245 15.955 76.3094 17.0775 78.6206 18.298L86.0048 26.6656L88.5954 24.3755L81.1012 15.8868L81.0839 15.9043C78.8737 13.1604 76.0481 10.7811 72.3405 8.83762V8.82041C72.289 8.77544 72.2372 8.85501 72.1902 8.85501C67.5087 8.51638 63.3582 8.82411 60.6659 9.53781C63.1404 7.57027 67.1062 6.10585 72.618 5.60569L81.3844 8.99379L82.6334 5.76741L74.9773 2.80675L74.9601 2.80083C72.4682 1.59955 69.8115 0.864562 66.6562 0.83477ZM22.6741 0.840322C19.5584 0.883251 16.931 1.61083 14.4629 2.80083L6.78966 5.76704L8.03313 8.99379L16.8052 5.60569C22.3139 6.10641 26.2837 7.57082 28.7576 9.53781C26.0652 8.82411 21.9147 8.51638 17.2332 8.85501C17.1862 8.85501 17.1344 8.77544 17.0828 8.82059V8.8378C13.3747 10.7815 10.5495 13.1602 8.33938 15.9041L8.31643 15.8868L0.822266 24.3757L3.41839 26.6656L10.8026 18.298C13.1138 17.0775 15.7988 15.955 18.7539 15.0715C15.8043 17.9181 13.8192 20.9343 12.4969 24.144L7.58774 33.8415L10.6755 35.4029L15.8913 25.0922C17.866 23.2984 20.2379 21.5087 22.9284 19.8823C20.2712 24.2086 19.0425 28.4118 18.794 32.6676L17.8633 38.6696L21.2806 39.2073L22.6858 30.181C24.9218 26.8862 28.1786 23.4387 32.7472 20.0963C35.6505 17.9714 38.1604 14.6771 38.4604 11.6536C38.8738 7.50217 35.9782 3.61723 31.8333 2.34378C28.2966 1.25703 25.3102 0.804239 22.6738 0.840322H22.6741ZM54.143 41.0583C52.0317 41.0583 49.6517 41.9668 46.7006 45.262V69.468C50.2608 66.8963 53.8219 65.836 57.1671 65.7961C61.4206 65.7452 65.2429 67.2083 68.5586 68.6527C71.8745 70.097 74.7653 71.4894 76.7293 71.7C77.7115 71.8054 78.395 71.6837 79.0541 71.2722C79.6439 70.9039 80.2791 70.196 80.9045 68.9536L77.0822 44.9434C75.1118 46.3173 73.2185 47.0812 71.3977 47.2912C68.843 47.5858 66.575 46.823 64.5974 45.8164C60.6431 43.8041 57.5355 41.0494 54.1426 41.0577L54.143 41.0583ZM35.7543 41.9835C32.4018 41.9683 29.17 44.8424 25.1319 46.9968C23.1127 48.0741 20.8115 48.9201 18.21 48.691C16.3563 48.5282 14.4309 47.8062 12.4393 46.4417L8.84232 70.2311C11.3618 72.6544 13.532 73.1115 15.9838 72.7925C18.6238 72.4492 21.5965 70.9691 24.7559 69.4445C27.9152 67.92 31.2897 66.3403 35.0142 66.2581C37.7111 66.1989 40.5154 67.0371 43.2429 69.0974V45.4356C40.2351 42.0216 38.6587 41.9901 35.7543 41.9831V41.9835ZM5.61002 49.0263L1.02433 78.3035L37.09 80.7091V84.2249H52.5526V80.7146L88.7336 78.3035L84.1483 49.0263L81.2746 49.2521L84.4085 68.959L84.4899 69.4734L84.2756 69.9415C83.3948 71.8946 82.2874 73.3289 80.8872 74.2036C80.2099 74.6264 79.4827 74.8932 78.7418 75.0418L78.7473 75.0766L78.3776 75.1114L78.3314 75.1169C78.1541 75.1421 77.977 75.1571 77.7994 75.1691H77.7762L45.0469 78.3378L44.9022 78.3496L44.7634 78.338L15.4405 76.3086H15.4231C14.5708 76.3462 13.7063 76.2901 12.8381 76.1291C12.8325 76.1282 12.8264 76.1302 12.8207 76.1291C10.4115 75.6787 7.97929 74.4101 5.74288 72.0353L5.16463 71.422L5.2923 70.5894L8.51295 49.2519L5.61002 49.0261V49.0263ZM57.2073 69.2537C53.7836 69.2944 50.2077 70.4894 46.2092 74.3655L45.7754 74.7874L68.8247 72.5613C68.2799 72.3134 67.7343 72.0639 67.1765 71.8212C63.9833 70.43 60.6313 69.2128 57.2074 69.2537H57.2073ZM35.0893 69.7163C32.3311 69.777 29.3641 71.0634 26.2591 72.5613C25.6452 72.8574 25.0212 73.162 24.3976 73.4634L44.2026 74.8338L43.6993 74.2556C40.5369 70.6134 37.8475 69.6555 35.0893 69.716V69.7163Z" fill="#0B7077"/>
</svg>
