<svg width="80" height="80" viewBox="0 0 80 80" fill="none" xmlns="http://www.w3.org/2000/svg">
<circle cx="39.9427" cy="40.0995" r="39.1595" fill="#00BAC3"/>
<path d="M42.7453 58.3961C42.2292 58.446 38.2335 61.9367 30.7555 68.8681C30.3581 69.2367 29.8615 69.4808 29.3269 69.5703C28.7923 69.6599 28.2433 69.5909 27.7475 69.3719C27.2517 69.1529 26.8308 68.7936 26.537 68.3381C26.2431 67.8827 26.0891 67.3512 26.0938 66.8092C26.1493 60.2552 26.1244 56.5175 26.0272 55.5991C25.9773 55.119 26.116 54.8221 26.0272 54.7666C19.7091 50.7737 14.9697 44.0116 14.9697 36.3254C14.9697 24.0581 26.1521 14.1133 39.9428 14.1133C53.7335 14.1133 64.9158 24.0581 64.9158 36.3227C64.9158 47.7464 55.218 57.1585 42.7453 58.3961ZM48.2671 41.8611C49.739 41.8611 51.1505 41.2764 52.1913 40.2357C53.232 39.1949 53.8167 37.7834 53.8167 36.3116C53.8167 34.8397 53.232 33.4282 52.1913 32.3874C51.1505 31.3467 49.739 30.762 48.2671 30.762C46.7953 30.762 45.3837 31.3467 44.343 32.3874C43.3023 33.4282 42.7176 34.8397 42.7176 36.3116C42.7176 37.7834 43.3023 39.1949 44.343 40.2357C45.3837 41.2764 46.7953 41.8611 48.2671 41.8611ZM31.6184 41.8611C33.0903 41.8611 34.5018 41.2764 35.5426 40.2357C36.5833 39.1949 37.168 37.7834 37.168 36.3116C37.168 34.8397 36.5833 33.4282 35.5426 32.3874C34.5018 31.3467 33.0903 30.762 31.6184 30.762C30.1466 30.762 28.735 31.3467 27.6943 32.3874C26.6535 33.4282 26.0689 34.8397 26.0689 36.3116C26.0689 37.7834 26.6535 39.1949 27.6943 40.2357C28.735 41.2764 30.1466 41.8611 31.6184 41.8611Z" fill="white"/>
</svg>
