<svg width="71" height="59" viewBox="0 0 71 59" fill="none" xmlns="http://www.w3.org/2000/svg">
<g clip-path="url(#clip0_586_4220)">
<path d="M19.6431 26.9586C18.5845 24.7247 18.0344 22.273 18.0342 19.7889C18.0342 18.4293 18.2257 17.0323 18.6179 15.5238C18.7935 14.8452 19.0139 14.1963 19.2616 13.5668C18.3109 13.0341 17.2659 12.7065 16.1449 12.7065C11.9877 12.7065 8.62237 16.7258 8.62237 21.6897C8.62237 25.1623 10.2761 28.1676 12.6914 29.6629L2.49601 34.5332C1.86065 34.8397 1.44189 35.5761 1.44189 36.399V44.6576C1.44189 45.7644 2.19505 46.6614 3.12149 46.6614H9.14753V37.9956C9.14753 35.4708 10.5171 33.1815 12.6428 32.1604L20.4419 28.4328C20.1502 27.9564 19.8835 27.4643 19.6431 26.9586ZM44.103 17.8287H70.0129H70.0175C70.7569 17.8287 71.3558 17.2133 71.3558 16.4551V11.439C71.3558 10.68 70.7562 10.0654 70.0175 10.0654L70.0129 10.0662V10.0623H41.0599C42.3349 11.784 43.2475 13.7588 43.7397 15.8616C43.9031 16.555 44.0217 17.2032 44.103 17.8287ZM71.3558 42.504C71.3558 41.7451 70.7562 41.1304 70.0175 41.1304L70.0129 41.1312V41.1273H53.1242V48.2167C53.1242 48.4453 53.112 48.6707 53.09 48.893H70.0129H70.0175C70.7569 48.893 71.3558 48.2776 71.3558 47.5194V42.504ZM70.0175 25.5983L70.0129 25.5991V25.5952H43.1963C43.0755 25.922 42.9478 26.2473 42.8057 26.5694C42.5333 27.1865 42.2226 27.7849 41.8754 28.3611L49.6943 32.1893C50.2811 32.4863 50.815 32.8827 51.2736 33.3616H70.0129H70.0175C70.7569 33.3616 71.3558 32.7462 71.3558 31.9881V26.9719C71.3558 26.2129 70.7562 25.5983 70.0175 25.5983Z" fill="#0B7077"/>
<path d="M48.0447 35.6915L39.2659 31.3937L35.5533 29.5763C37.1751 28.5279 38.4915 26.9102 39.3533 24.961C40.0719 23.3364 40.4437 21.573 40.4439 19.7888C40.4439 18.7374 40.282 17.7398 40.0548 16.7757C38.9505 12.1089 35.399 8.66992 31.1354 8.66992C26.9524 8.66992 23.4549 11.9857 22.2829 16.5206C22.0124 17.5604 21.8254 18.6422 21.8254 19.788C21.8254 21.7786 22.2784 23.6334 23.0483 25.248C23.9382 27.12 25.2568 28.6637 26.8619 29.6558L23.3067 31.3547L14.2429 35.6868C13.4548 36.0651 12.938 36.9769 12.938 37.9948V48.2167C12.938 49.5864 13.8682 50.6979 15.0166 50.6979H47.2535C48.4019 50.6979 49.3321 49.5872 49.3321 48.2167V37.9956C49.3336 36.9808 48.8244 36.0783 48.0447 35.6915Z" fill="#0B7077"/>
</g>
<defs>
<clipPath id="clip0_586_4220">
<rect width="70" height="58" fill="white" transform="translate(0.400879 0.288818)"/>
</clipPath>
</defs>
</svg>
