<svg width="9" height="10" viewBox="0 0 9 10" fill="none" xmlns="http://www.w3.org/2000/svg">
<path d="M8.04297 3.76636C8.33594 3.45386 8.51172 3.06323 8.51172 2.63354C8.51172 1.75464 7.78906 1.03198 6.91016 1.03198C6.38281 1.03198 5.91406 1.28589 5.60156 1.71558C5.30859 1.61792 4.99609 1.55933 4.68359 1.53979V0.934326H5.26953V0.348389H3.51172V0.934326H4.09766V1.53979C3.78516 1.55933 3.47266 1.61792 3.17969 1.71558C2.86719 1.28589 2.39844 1.03198 1.87109 1.03198C0.992188 1.03198 0.269531 1.75464 0.269531 2.63354C0.269531 3.06323 0.445312 3.45386 0.738281 3.76636C0.445312 4.33276 0.269531 4.95776 0.269531 5.64136C0.269531 6.65698 0.640625 7.57495 1.22656 8.27808L0.484375 9.2937L0.953125 9.64526L1.65625 8.70776C2.37891 9.35229 3.33594 9.76245 4.39062 9.76245C5.44531 9.76245 6.40234 9.35229 7.125 8.70776L7.82812 9.64526L8.29688 9.2937L7.55469 8.27808C8.14062 7.57495 8.51172 6.65698 8.51172 5.64136C8.51172 4.95776 8.33594 4.33276 8.04297 3.76636ZM6.91016 1.61792C7.45703 1.61792 7.92578 2.08667 7.92578 2.63354C7.92578 2.84839 7.84766 3.06323 7.73047 3.23901C7.32031 2.69214 6.79297 2.24292 6.16797 1.94995C6.36328 1.73511 6.61719 1.61792 6.91016 1.61792ZM0.855469 2.63354C0.855469 2.08667 1.32422 1.61792 1.87109 1.61792C2.16406 1.61792 2.41797 1.73511 2.61328 1.93042C1.98828 2.24292 1.46094 2.69214 1.05078 3.23901C0.933594 3.06323 0.855469 2.84839 0.855469 2.63354ZM4.39062 9.17651C2.4375 9.17651 0.855469 7.59448 0.855469 5.64136C0.855469 3.70776 2.4375 2.1062 4.39062 2.1062C6.34375 2.1062 7.92578 3.70776 7.92578 5.64136C7.92578 7.59448 6.34375 9.17651 4.39062 9.17651ZM4.68359 5.64136H7.04688V6.22729H4.09766V3.88354H4.68359V5.64136Z" fill="white" fill-opacity="0.8"/>
</svg>
