<svg width="73" height="51" viewBox="0 0 73 51" fill="none" xmlns="http://www.w3.org/2000/svg">
<path d="M60.9777 22.049C61.4353 20.8548 61.692 19.549 61.692 18.1874C61.692 12.2722 56.8929 7.47306 50.9777 7.47306C48.779 7.47306 46.7255 8.1427 45.029 9.2811C41.9375 3.92395 36.1674 0.3302 29.5491 0.3302C19.683 0.3302 11.692 8.32128 11.692 18.1874C11.692 18.4887 11.7031 18.79 11.7143 19.0914C5.46427 21.29 0.977661 27.2499 0.977661 34.2588C0.977661 43.1316 8.17633 50.3302 17.0491 50.3302H58.1206C66.0112 50.3302 72.4063 43.9351 72.4063 36.0445C72.4063 29.136 67.4956 23.3659 60.9777 22.049Z" fill="white"/>
</svg>
