<svg width="108" height="108" viewBox="0 0 108 108" fill="none" xmlns="http://www.w3.org/2000/svg">
<path d="M93.8483 14.2432H13.5983C11.2335 14.2432 8.96547 15.1826 7.29327 16.8548C5.62107 18.527 4.68164 20.795 4.68164 23.1599V36.5349H13.5983V23.1599H93.8483V85.5765H62.64V94.4932H93.8483C96.2132 94.4932 98.4811 93.5538 100.153 91.8816C101.826 90.2094 102.765 87.9414 102.765 85.5765V23.1599C102.765 20.795 101.826 18.527 100.153 16.8548C98.4811 15.1826 96.2132 14.2432 93.8483 14.2432ZM4.68164 81.1182V94.4932H18.0566C18.0566 90.9459 16.6475 87.5439 14.1392 85.0356C11.6309 82.5273 8.22891 81.1182 4.68164 81.1182ZM4.68164 63.2849V72.2015C7.60902 72.2015 10.5077 72.7781 13.2123 73.8984C15.9168 75.0186 18.3743 76.6606 20.4442 78.7306C22.5142 80.8006 24.1562 83.258 25.2765 85.9625C26.3967 88.6671 26.9733 91.5658 26.9733 94.4932H35.89C35.89 86.2162 32.602 78.2783 26.7493 72.4256C20.8966 66.5729 12.9586 63.2849 4.68164 63.2849ZM4.68164 45.4515V54.3682C9.95093 54.3682 15.1686 55.4061 20.0368 57.4225C24.905 59.439 29.3283 62.3946 33.0543 66.1205C36.7803 69.8465 39.7358 74.2698 41.7523 79.138C43.7688 84.0062 44.8066 89.2239 44.8066 94.4932H53.7233C53.7233 67.3865 31.7437 45.4515 4.68164 45.4515ZM49.265 50.3111V59.2278L64.8691 67.7432L80.4733 59.2278V50.3111L64.8691 58.8265L49.265 50.3111ZM64.8691 27.6182L40.3483 40.9932L64.8691 54.3682L89.39 40.9932L64.8691 27.6182Z" fill="#0B7077"/>
</svg>
