<svg width="118" height="118" viewBox="0 0 118 118" fill="none" xmlns="http://www.w3.org/2000/svg">
<path d="M78.2227 10.6182C79.4167 10.6184 80.5692 11.0567 81.4615 11.8502C82.3538 12.6436 82.9238 13.737 83.0635 14.9228L83.0977 15.4932V20.3682H87.9727C91.7031 20.368 95.2925 21.7933 98.0067 24.3525C100.721 26.9116 102.354 30.4112 102.573 34.1352L102.598 34.9932V93.4932C102.598 97.2236 101.173 100.813 98.6134 103.527C96.0542 106.241 92.5546 107.875 88.8307 108.094L87.9727 108.118H29.4727C25.7423 108.118 22.1528 106.693 19.4386 104.134C16.7245 101.575 15.0909 98.0752 14.872 94.3512L14.8477 93.4932V34.9932C14.8474 31.2628 16.2727 27.6733 18.8319 24.9592C21.3911 22.245 24.8907 20.6114 28.6147 20.3926L29.4727 20.3682H34.3477V15.4932C34.349 14.2507 34.8248 13.0555 35.6778 12.152C36.5308 11.2485 37.6966 10.7048 38.937 10.632C40.1774 10.5592 41.3988 10.9627 42.3516 11.7602C43.3044 12.5577 43.9168 13.689 44.0635 14.9228L44.0977 15.4932V20.3682H73.3477V15.4932C73.3477 14.2003 73.8613 12.9603 74.7755 12.046C75.6898 11.1318 76.9297 10.6182 78.2227 10.6182ZM92.8477 44.7432H24.5977V91.6651C24.5977 95.1019 26.4794 97.9343 28.9023 98.3243L29.4727 98.3682H87.9727C90.4735 98.3682 92.5357 95.7844 92.8135 92.4451L92.8477 91.6651V44.7432Z" fill="#0B7077"/>
<path d="M58.7231 59.3682C59.9172 59.3684 61.0696 59.8067 61.9619 60.6002C62.8542 61.3936 63.4243 62.487 63.564 63.6728L63.5981 64.2432V78.8682C63.5967 80.1107 63.121 81.3058 62.268 82.2094C61.415 83.1129 60.2492 83.6566 59.0088 83.7294C57.7684 83.8022 56.547 83.3987 55.5942 82.6012C54.6413 81.8037 54.029 80.6724 53.8822 79.4386L53.8481 78.8682V69.1182C52.6056 69.1168 51.4105 68.641 50.5069 67.7881C49.6034 66.9351 49.0597 65.7693 48.9869 64.5289C48.9141 63.2885 49.3177 62.0671 50.1152 61.1143C50.9127 60.1614 52.0439 59.5491 53.2777 59.4023L53.8481 59.3682H58.7231Z" fill="#0B7077"/>
</svg>
