<svg width="14" height="15" viewBox="0 0 14 15" fill="none" xmlns="http://www.w3.org/2000/svg">
<path d="M13.6846 7.73047C13.6846 11.4757 10.6485 14.5117 6.90332 14.5117C3.15813 14.5117 0.12207 11.4757 0.12207 7.73047C0.12207 3.98528 3.15813 0.949219 6.90332 0.949219C10.6485 0.949219 13.6846 3.98528 13.6846 7.73047ZM6.11894 11.3211L11.1502 6.28984C11.321 6.11899 11.321 5.84197 11.1502 5.67113L10.5315 5.05242C10.3606 4.88155 10.0836 4.88155 9.91275 5.05242L5.80957 9.15557L3.89389 7.23989C3.72305 7.06905 3.44603 7.06905 3.27516 7.23989L2.65645 7.8586C2.48561 8.02945 2.48561 8.30646 2.65645 8.47731L5.5002 11.3211C5.67107 11.4919 5.94807 11.4919 6.11894 11.3211Z" fill="#0B7077"/>
</svg>
