<svg width="15" height="15" viewBox="0 0 15 15" fill="none" xmlns="http://www.w3.org/2000/svg">
<path d="M13.8098 7.73047C13.8098 11.4757 10.7738 14.5117 7.02856 14.5117C3.28337 14.5117 0.247314 11.4757 0.247314 7.73047C0.247314 3.98528 3.28337 0.949219 7.02856 0.949219C10.7738 0.949219 13.8098 3.98528 13.8098 7.73047ZM6.24418 11.3211L11.2754 6.28984C11.4463 6.11899 11.4463 5.84197 11.2754 5.67113L10.6567 5.05242C10.4859 4.88155 10.2089 4.88155 10.038 5.05242L5.93481 9.15557L4.01914 7.23989C3.84829 7.06905 3.57128 7.06905 3.4004 7.23989L2.7817 7.8586C2.61085 8.02945 2.61085 8.30646 2.7817 8.47731L5.62545 11.3211C5.79632 11.4919 6.07331 11.4919 6.24418 11.3211Z" fill="#56CA45"/>
</svg>
