<svg width="59" height="60" viewBox="0 0 59 60" fill="none" xmlns="http://www.w3.org/2000/svg">
<path d="M44.1509 4.08555C48.5848 6.68205 52.2668 10.4166 54.8267 14.9139C57.3866 19.4112 58.7342 24.5127 58.7342 29.7057C58.7342 34.8986 57.3864 40.0001 54.8265 44.4974C52.2665 48.9946 48.5845 52.7291 44.1506 55.3256C39.7166 57.922 34.6869 59.2889 29.5671 59.2888C24.4472 59.2887 19.4176 57.9217 14.9837 55.3251C10.5499 52.7285 6.86797 48.9939 4.30815 44.4966C1.74832 39.9992 0.400749 34.8977 0.400879 29.7047L0.415463 28.7462C0.578805 23.6371 2.04456 18.6582 4.66983 14.2947C7.2951 9.93129 10.9903 6.33226 15.3951 3.84854C19.8 1.36481 24.7642 0.081143 29.8038 0.122681C34.8434 0.164219 39.7864 1.52955 44.1509 4.08555ZM29.5675 11.9547C28.794 11.9547 28.0521 12.2664 27.5052 12.8212C26.9582 13.376 26.6509 14.1285 26.6509 14.9131C24.3302 14.9131 22.1046 15.8481 20.4637 17.5125C18.8228 19.1769 17.9009 21.4343 17.9009 23.7881C17.9009 26.1418 18.8228 28.3992 20.4637 30.0636C22.1046 31.728 24.3302 32.6631 26.6509 32.6631V38.5797C26.1672 38.6069 25.6842 38.5138 25.244 38.3086C24.8039 38.1034 24.4197 37.7923 24.125 37.4023L23.9267 37.1035C23.5277 36.4508 22.894 35.981 22.1596 35.7936C21.4253 35.6062 20.6478 35.7158 19.9917 36.0992C19.3356 36.4827 18.8523 37.11 18.6439 37.8484C18.4355 38.5867 18.5184 39.3784 18.875 40.0559C19.6195 41.3655 20.6814 42.4605 21.96 43.237C23.2387 44.0136 24.6917 44.4461 26.1813 44.4934H26.6509C26.6503 45.2185 26.9122 45.9186 27.387 46.4607C27.8618 47.0028 28.5163 47.3492 29.2263 47.434L29.5675 47.4547C30.3411 47.4547 31.083 47.143 31.6299 46.5882C32.1769 46.0334 32.4842 45.281 32.4842 44.4964L32.9975 44.4816C35.2714 44.3483 37.4044 43.3209 38.9433 41.6178C40.4822 39.9147 41.3057 37.6701 41.2389 35.3609C41.172 33.0518 40.2201 30.86 38.5853 29.2514C36.9506 27.6428 34.7619 26.7442 32.4842 26.7464V20.8297C33.5284 20.7942 34.4413 21.2439 35.01 22.0071L35.2084 22.3059C35.6074 22.9587 36.2411 23.4284 36.9755 23.6158C37.7098 23.8033 38.4873 23.6937 39.1434 23.3102C39.7995 22.9267 40.2828 22.2995 40.4912 21.5611C40.6996 20.8227 40.6167 20.031 40.26 19.3535C39.516 18.0434 38.4542 16.9478 37.1756 16.1707C35.8969 15.3936 34.4437 14.9607 32.9538 14.9131H32.4842C32.4842 14.1285 32.1769 13.376 31.6299 12.8212C31.083 12.2664 30.3411 11.9547 29.5675 11.9547ZM32.4842 32.6631C33.2578 32.6631 33.9996 32.9747 34.5466 33.5295C35.0936 34.0843 35.4009 34.8368 35.4009 35.6214C35.4009 36.406 35.0936 37.1584 34.5466 37.7132C33.9996 38.268 33.2578 38.5797 32.4842 38.5797V32.6631ZM26.6509 20.8297V26.7464C25.8773 26.7464 25.1355 26.4347 24.5885 25.8799C24.0415 25.3251 23.7342 24.5727 23.7342 23.7881C23.7342 23.0035 24.0415 22.251 24.5885 21.6962C25.1355 21.1414 25.8773 20.8297 26.6509 20.8297Z" fill="#0B7077"/>
</svg>
