<svg width="90" height="65" viewBox="0 0 90 65" fill="none" xmlns="http://www.w3.org/2000/svg">
<path d="M25.1369 0.361816C24.9115 0.361816 24.6673 0.361816 24.4419 0.380599C18.0744 0.530866 10.2605 2.39041 0.530762 6.71057V52.4291C11.951 47.0195 20.5725 45.4605 27.6163 46.2118C30.1896 46.4748 32.5563 47.0571 34.7351 47.8272L26.2639 33.026C24.6485 33.6834 22.9017 34.059 21.0609 34.059C13.5081 34.059 7.3491 27.8981 7.3491 20.3472C7.3491 12.7964 13.5081 6.63544 21.0609 6.63544C28.6118 6.63544 34.7727 12.7964 34.7727 20.3472C34.7727 24.8552 32.5751 28.8561 29.1941 31.373L39.9569 50.1563C41.1215 50.7574 42.2297 51.4148 43.3191 52.0722V6.42882C38.9614 3.10418 33.8899 0.793833 27.1655 0.418167C26.5081 0.3806 25.8319 0.361816 25.1369 0.361816ZM64.9575 0.361816C64.2625 0.361816 63.5675 0.3806 62.9101 0.418167C56.1857 0.793833 51.1329 3.10418 46.7564 6.42882V52.0722C51.2456 49.3299 56.1669 46.8693 62.4593 46.2118C69.503 45.4605 78.1433 47.0195 89.5448 52.4291V6.71057C79.8338 2.39041 72.02 0.530866 65.6524 0.380599C65.4082 0.380599 65.1829 0.361816 64.9575 0.361816ZM21.0609 10.0164C15.3358 10.0164 10.7301 14.6183 10.7301 20.3472C10.7301 26.0761 15.3358 30.6781 21.0609 30.6781C26.7898 30.6781 31.3917 26.0761 31.3917 20.3472C31.3917 14.6183 26.7898 10.0164 21.0609 10.0164ZM21.4929 12.6273H22.0189C17.4921 16.0459 15.486 20.5351 15.7509 25.8132C10.8559 18.5253 15.9894 12.7776 21.4929 12.6273ZM23.9535 49.5365C17.9429 49.5928 10.4671 51.3772 0.530762 56.2985V64.2814C11.951 58.8718 20.5725 57.3128 27.6163 58.0641C31.11 58.4398 34.1716 59.3601 36.9703 60.5623C36.0875 61.7081 35.2235 63.0604 34.3595 64.6382H44.371L37.609 52.8611C34.491 51.3021 31.1663 50.1188 27.2594 49.7055C26.2075 49.5928 25.0993 49.5365 23.9535 49.5365ZM65.4458 49.5365C64.5442 49.5553 63.6802 49.6116 62.8349 49.7055C56.4486 50.3817 51.6401 53.0865 46.7564 56.167V56.2233C45.6107 55.8664 44.4461 55.7913 43.3191 55.9979L48.2591 64.6382H56.3735C55.2465 63.098 54.1571 61.7456 53.0488 60.5811C55.8663 59.3601 58.9468 58.4398 62.4593 58.0641C69.503 57.3128 78.1433 58.8718 89.5448 64.2814V56.2985C79.5709 51.3585 72.0575 49.5553 66.0281 49.5365H65.4458Z" fill="white"/>
</svg>
