<svg width="65" height="51" viewBox="0 0 65 51" fill="none" xmlns="http://www.w3.org/2000/svg">
<path d="M62.7471 22.3235L56.3391 11.8421C55.8692 11.0818 55.2098 10.4526 54.4238 10.0146C53.6377 9.5765 52.751 9.34406 51.8481 9.33935H46.8171V8.60273C46.8172 7.53894 46.6041 6.48562 46.1902 5.50325C45.7763 4.52089 45.1696 3.62885 44.4051 2.87835C42.8599 1.35915 40.767 0.505966 38.5851 0.505767H8.63606C7.00623 0.495921 5.41042 0.965487 4.05256 1.85446C2.69471 2.74344 1.63646 4.01145 1.01306 5.49647C0.601816 6.48151 0.393764 7.5375 0.401065 8.60273V35.1035C0.402121 36.3483 0.860829 37.5505 1.69215 38.4872C2.52348 39.4239 3.67103 40.0317 4.92206 40.1977C4.90706 40.464 4.90706 40.7302 4.92206 40.9935C4.91088 42.2483 5.15705 43.4924 5.64578 44.651C6.13451 45.8096 6.85572 46.8588 7.76606 47.7356C8.65916 48.6517 9.728 49.3837 10.9105 49.8891C12.0929 50.3944 13.3654 50.6629 14.6541 50.6791C17.2261 50.6564 19.6869 49.6412 21.5091 47.8509C23.3297 46.0638 24.3643 43.642 24.3891 41.1089C24.4039 40.8646 24.4039 40.6196 24.3891 40.3752H40.9161C40.9012 40.6196 40.9012 40.8646 40.9161 41.1089C40.9043 42.3642 41.1502 43.6089 41.639 44.768C42.1277 45.9272 42.8492 46.9769 43.7601 47.8539C44.6538 48.7709 45.7236 49.5034 46.9071 50.0088C48.0907 50.5141 49.3644 50.7822 50.6541 50.7974C53.2262 50.7751 55.6871 49.7598 57.5091 47.9693C59.3286 46.1817 60.3621 43.7599 60.3861 41.2272C60.4011 40.9819 60.4011 40.7359 60.3861 40.4906H62.6541C63.2458 40.4823 63.8111 40.2473 64.2304 39.8355C64.6497 39.4237 64.8902 38.8672 64.9011 38.2837V29.7755C64.9011 27.1426 64.1541 24.5629 62.7471 22.3235ZM19.8651 40.9906C19.868 41.6671 19.7315 42.3372 19.4639 42.9602C19.1962 43.5831 18.803 44.146 18.3081 44.6145C17.31 45.5497 15.9858 46.0711 14.6091 46.0711C13.2323 46.0711 11.9081 45.5497 10.9101 44.6145C10.4239 44.1356 10.0388 43.5664 9.77721 42.9398C9.51562 42.3131 9.38267 41.6416 9.38606 40.9639C9.37276 40.2643 9.51617 39.5703 9.80606 38.9316C10.2021 38.0056 10.8831 37.2246 11.7501 36.6921C12.6368 36.1141 13.6814 35.8169 14.7441 35.8401C15.7581 35.8401 16.7481 36.1359 17.5881 36.6921C18.4491 37.2335 19.1271 38.0115 19.5381 38.9316C19.8321 39.5676 19.9881 40.2628 19.9851 40.9639L19.8651 40.9906ZM29.5971 26.2699H14.6271C13.8345 26.2691 13.0745 25.9591 12.513 25.4076C11.9514 24.8561 11.634 24.1079 11.6301 23.3264C11.6293 22.9387 11.7062 22.5547 11.8565 22.1965C12.0067 21.8383 12.2273 21.5129 12.5056 21.239C12.7838 20.9652 13.1143 20.7483 13.4778 20.6008C13.8414 20.4534 14.2309 20.3783 14.6241 20.3799H29.5971C30.3896 20.3814 31.1493 20.6922 31.7103 21.2442C32.2712 21.7963 32.5879 22.5448 32.5911 23.3264C32.5915 23.7138 32.5142 24.0974 32.3638 24.4553C32.2134 24.8132 31.9927 25.1382 31.7145 25.4118C31.4363 25.6853 31.106 25.9019 30.7426 26.0492C30.3792 26.1964 29.9899 26.2715 29.5971 26.2699ZM29.5971 16.1406H14.6271C13.8345 16.1398 13.0745 15.8298 12.513 15.2783C11.9514 14.7268 11.634 13.9785 11.6301 13.197C11.6297 12.8096 11.7069 12.4259 11.8573 12.0681C12.0078 11.7102 12.2284 11.3851 12.5066 11.1116C12.7849 10.8381 13.1151 10.6215 13.4785 10.4742C13.8419 10.3269 14.2312 10.2519 14.6241 10.2535H29.5971C30.3891 10.255 31.1483 10.5654 31.7092 11.1168C32.2701 11.6682 32.5871 12.416 32.5911 13.197C32.5915 13.5844 32.5142 13.9681 32.3638 14.326C32.2134 14.6839 31.9927 15.0089 31.7145 15.2824C31.4363 15.556 31.106 15.7726 30.7426 15.9198C30.3792 16.0671 29.9899 16.1421 29.5971 16.1406ZM55.7991 40.9906C55.8018 41.6674 55.6649 42.3376 55.3968 42.9606C55.1286 43.5836 54.7347 44.1463 54.2391 44.6145C53.2412 45.5488 51.9176 46.0697 50.5416 46.0697C49.1655 46.0697 47.842 45.5488 46.8441 44.6145C46.3573 44.1359 45.9717 43.5668 45.7096 42.9401C45.4475 42.3135 45.3141 41.6418 45.3171 40.9639C45.3043 39.8913 45.6525 38.8447 46.3071 37.9879C47.0451 37.0205 48.1041 36.3312 49.3011 36.0442H50.0511C50.1884 36.0141 50.3307 36.0141 50.4681 36.0442H51.0681C51.9771 36.1478 52.8441 36.4821 53.5821 37.0175C54.3231 37.553 54.9021 38.2748 55.2591 39.1091C55.5561 39.7451 55.7091 40.4403 55.7091 41.1385L55.7991 40.9906Z" fill="#0B7077"/>
</svg>
