<svg width="21" height="21" viewBox="0 0 21 21" fill="none" xmlns="http://www.w3.org/2000/svg">
<path d="M15.5293 1.78432C17.0495 2.66201 18.3119 3.9244 19.1896 5.4446C20.0673 6.96481 20.5293 8.68926 20.5293 10.4446C20.5293 12.2 20.0672 13.9245 19.1895 15.4447C18.3118 16.9648 17.0494 18.2272 15.5292 19.1049C14.009 19.9826 12.2845 20.4446 10.5291 20.4446C8.77376 20.4445 7.04932 19.9825 5.52913 19.1047C4.00895 18.227 2.74659 16.9646 1.86893 15.4444C0.991277 13.9242 0.529252 12.1997 0.529297 10.4443L0.534297 10.1203C0.5903 8.39331 1.09284 6.71028 1.99294 5.23531C2.89303 3.76034 4.15995 2.54377 5.67019 1.7042C7.18043 0.864633 8.88244 0.430717 10.6103 0.444758C12.3382 0.458799 14.0329 0.920318 15.5293 1.78432ZM10.5293 4.44432C10.2641 4.44432 10.0097 4.54968 9.82219 4.73721C9.63465 4.92475 9.5293 5.1791 9.5293 5.44432V10.4703L9.5383 10.5753L9.5583 10.6823L9.5983 10.8113L9.6463 10.9133L9.6923 10.9913L9.7343 11.0513L9.8033 11.1313L9.8913 11.2143L9.9743 11.2763L12.9743 13.2763C13.0836 13.3492 13.2061 13.3999 13.3349 13.4254C13.4638 13.4509 13.5964 13.4508 13.7252 13.4251C13.854 13.3994 13.9764 13.3485 14.0856 13.2755C14.1947 13.2024 14.2884 13.1086 14.3613 12.9993C14.4342 12.8901 14.4848 12.7675 14.5104 12.6387C14.5359 12.5098 14.5358 12.3772 14.5101 12.2485C14.4843 12.1197 14.4335 11.9972 14.3604 11.888C14.2874 11.7789 14.1936 11.6852 14.0843 11.6123L11.5293 9.90832V5.44432C11.5293 5.19939 11.4393 4.96298 11.2766 4.77995C11.1138 4.59691 10.8895 4.47998 10.6463 4.45132L10.5293 4.44432Z" fill="#0B7077"/>
</svg>
