<svg width="17" height="17" viewBox="0 0 17 17" fill="none" xmlns="http://www.w3.org/2000/svg">
<path d="M8.18916 3.10254L9.60238 1.68932C9.96984 1.32186 10.4061 1.03037 10.8862 0.831499C11.3663 0.63263 11.8809 0.530273 12.4006 0.530273C12.9202 0.530273 13.4348 0.63263 13.9149 0.831499C14.395 1.03037 14.8313 1.32185 15.1987 1.68932C15.5662 2.05678 15.8577 2.49302 16.0566 2.97313C16.2554 3.45324 16.3578 3.96783 16.3578 4.4875C16.3578 5.00716 16.2554 5.52175 16.0566 6.00186C15.8577 6.48197 15.5662 6.91821 15.1987 7.28567L12.3723 10.1121C12.0048 10.4796 11.5686 10.7711 11.0885 10.97C10.6084 11.1689 10.0938 11.2712 9.57411 11.2712C9.05444 11.2712 8.53985 11.1689 8.05974 10.97C7.57962 10.7711 7.14339 10.4796 6.77594 10.1121C6.62598 9.95141 6.54428 9.73875 6.54808 9.51897C6.55187 9.2992 6.64086 9.08949 6.79629 8.93405C6.95172 8.77863 7.16143 8.68964 7.38121 8.68584C7.60098 8.68205 7.81364 8.76374 7.97435 8.9137C8.18435 9.12394 8.43373 9.29072 8.70823 9.40451C8.98273 9.5183 9.27696 9.57687 9.57411 9.57687C9.87127 9.57687 10.1655 9.5183 10.44 9.40451C10.7145 9.29072 10.9639 9.12394 11.1739 8.9137L14.0003 6.08726C14.404 5.65883 14.6248 5.09001 14.6161 4.50145C14.6073 3.91289 14.3696 3.3509 13.9534 2.93468C13.5372 2.51846 12.9752 2.28075 12.3866 2.27199C11.798 2.26322 11.2292 2.48409 10.8008 2.88773L9.38757 4.30095C9.22686 4.45091 9.0142 4.53261 8.79443 4.52881C8.57465 4.52502 8.36494 4.43602 8.20951 4.2806C8.05409 4.12517 7.96509 3.91546 7.9613 3.69568C7.9575 3.47591 8.0392 3.26325 8.18916 3.10254ZM2.88675 14.0013C3.09675 14.2115 3.34613 14.3783 3.62063 14.4921C3.89513 14.6059 4.18937 14.6645 4.48652 14.6645C4.78367 14.6645 5.07791 14.6059 5.35241 14.4921C5.6269 14.3783 5.87628 14.2115 6.08628 14.0013L7.49951 12.5881C7.66021 12.4381 7.87287 12.3564 8.09265 12.3602C8.31242 12.364 8.52214 12.453 8.67757 12.6084C8.83299 12.7639 8.92198 12.9736 8.92578 13.1933C8.92958 13.4131 8.84788 13.6258 8.69792 13.7865L7.2847 15.1997C6.91723 15.5672 6.48099 15.8587 6.00088 16.0575C5.52077 16.2564 5.00619 16.3588 4.48652 16.3588C3.96685 16.3588 3.45227 16.2564 2.97216 16.0575C2.49204 15.8587 2.0558 15.5672 1.68834 15.1997C1.32088 14.8323 1.02939 14.396 0.830522 13.9159C0.631653 13.4358 0.529297 12.9212 0.529297 12.4015C0.529297 11.8819 0.631653 11.3673 0.830522 10.8872C1.02939 10.4071 1.32088 9.97082 1.68834 9.60336L4.51478 6.77691C4.88223 6.40943 5.31847 6.11792 5.79858 5.91904C6.2787 5.72015 6.79328 5.61779 7.31296 5.61779C7.83264 5.61779 8.34723 5.72015 8.82734 5.91904C9.30745 6.11792 9.74369 6.40943 10.1111 6.77691C10.2611 6.93762 10.3428 7.15028 10.339 7.37006C10.3352 7.58983 10.2462 7.79954 10.0908 7.95498C9.93536 8.1104 9.72565 8.19939 9.50587 8.20319C9.2861 8.20698 9.07343 8.12529 8.91273 7.97533C8.70273 7.76509 8.45335 7.59831 8.17885 7.48452C7.90435 7.37073 7.61011 7.31216 7.31296 7.31216C7.01581 7.31216 6.72157 7.37073 6.44707 7.48452C6.17257 7.59831 5.92319 7.76509 5.71319 7.97533L2.88675 10.8018C2.67652 11.0118 2.50974 11.2611 2.39595 11.5356C2.28216 11.8101 2.22359 12.1044 2.22359 12.4015C2.22359 12.6987 2.28216 12.9929 2.39595 13.2674C2.50974 13.5419 2.67652 13.7913 2.88675 14.0013Z" fill="#0B7077"/>
</svg>
