<svg width="37" height="38" viewBox="0 0 37 38" fill="none" xmlns="http://www.w3.org/2000/svg">
<path fill-rule="evenodd" clip-rule="evenodd" d="M32.8317 24.6336H19.2844C20.8216 24.4967 22.2469 23.7728 23.2642 22.6124C24.2815 21.452 24.8127 19.9442 24.7472 18.4023C24.6818 16.8605 24.0248 15.4031 22.9128 14.3331C21.8008 13.263 20.3193 12.6625 18.7761 12.6563H14.3508C15.0124 11.7667 15.4856 10.7515 15.7414 9.67279C15.9973 8.59406 16.0305 7.47448 15.8389 6.3825C15.6473 5.29052 15.235 4.24908 14.6273 3.32187C14.0195 2.39466 13.229 1.60115 12.3041 0.989868L32.8317 0.989868C33.7739 0.991264 34.677 1.36653 35.3428 2.03327C36.0085 2.70001 36.3824 3.6037 36.3824 4.54591V21.0855C36.3824 23.0453 34.7914 24.6363 32.8317 24.6363V24.6336ZM7.79709 12.6616C8.4457 12.6767 9.09078 12.562 9.69441 12.3242C10.2981 12.0864 10.8481 11.7304 11.3121 11.277C11.7762 10.8236 12.1449 10.282 12.3967 9.68405C12.6485 9.08611 12.7782 8.44387 12.7782 7.79509C12.7782 7.1463 12.6485 6.50407 12.3967 5.90613C12.1449 5.30818 11.7762 4.7666 11.3121 4.31321C10.8481 3.85982 10.2981 3.50376 9.69441 3.26598C9.09078 3.0282 8.4457 2.91348 7.79709 2.92857C6.52601 2.95815 5.31695 3.48385 4.42844 4.39328C3.53993 5.3027 3.04249 6.52367 3.04249 7.79509C3.04249 9.06651 3.53993 10.2875 4.42844 11.1969C5.31695 12.1063 6.52601 12.632 7.79709 12.6616ZM21.4813 18.6568C21.4813 17.1607 20.2696 15.949 18.7761 15.949H7.79972C6.88295 15.9486 5.97509 16.1289 5.12804 16.4796C4.28098 16.8303 3.51133 17.3444 2.86307 17.9927C2.21481 18.641 1.70066 19.4106 1.34998 20.2577C0.999307 21.1047 0.81899 22.0126 0.819336 22.9294V26.1035C0.819336 27.5048 1.95727 28.6401 3.35862 28.6401H3.81168L4.5545 35.5151C4.62397 36.1606 4.92938 36.7578 5.41213 37.1919C5.89487 37.626 6.52094 37.8666 7.17017 37.8674H8.49249C9.12793 37.8671 9.74186 37.6371 10.2211 37.2199C10.7003 36.8026 11.0126 36.2261 11.1003 35.5968L13.0837 21.3621H18.7734C20.267 21.3621 21.4787 20.1504 21.4787 18.6568H21.4813Z" fill="#0B7077"/>
</svg>
