<svg width="15" height="15" viewBox="0 0 15 15" fill="none" xmlns="http://www.w3.org/2000/svg">
<path d="M9.31934 8.73606L7.19434 7.3194V3.77773M0.819336 7.3194C0.819336 8.15657 0.98423 8.98555 1.3046 9.759C1.62498 10.5325 2.09456 11.2352 2.68653 11.8272C3.2785 12.4192 3.98128 12.8888 4.75473 13.2091C5.52818 13.5295 6.35716 13.6944 7.19434 13.6944C8.03151 13.6944 8.86049 13.5295 9.63394 13.2091C10.4074 12.8888 11.1102 12.4192 11.7021 11.8272C12.2941 11.2352 12.7637 10.5325 13.0841 9.759C13.4044 8.98555 13.5693 8.15657 13.5693 7.3194C13.5693 6.48222 13.4044 5.65324 13.0841 4.87979C12.7637 4.10634 12.2941 3.40356 11.7021 2.81159C11.1102 2.21962 10.4074 1.75004 9.63394 1.42967C8.86049 1.10929 8.03151 0.944397 7.19434 0.944397C6.35716 0.944397 5.52818 1.10929 4.75473 1.42967C3.98128 1.75004 3.2785 2.21962 2.68653 2.81159C2.09456 3.40356 1.62498 4.10634 1.3046 4.87979C0.98423 5.65324 0.819336 6.48222 0.819336 7.3194Z" stroke="#696984" stroke-linecap="round" stroke-linejoin="round"/>
</svg>
