<svg width="12" height="15" viewBox="0 0 12 15" fill="none" xmlns="http://www.w3.org/2000/svg">
<path d="M5.53516 8.94452C5.04071 8.94452 4.55736 8.7979 4.14623 8.52319C3.73511 8.24849 3.41468 7.85804 3.22546 7.40123C3.03624 6.94441 2.98673 6.44175 3.0832 5.95679C3.17966 5.47184 3.41776 5.02638 3.76739 4.67675C4.11702 4.32712 4.56248 4.08902 5.04743 3.99256C5.53239 3.89609 6.03505 3.9456 6.49187 4.13482C6.94868 4.32404 7.33913 4.64447 7.61383 5.05559C7.88854 5.46672 8.03516 5.95007 8.03516 6.44452C8.03437 7.10732 7.77072 7.74274 7.30205 8.21141C6.83338 8.68008 6.19796 8.94373 5.53516 8.94452ZM5.53516 4.94452C5.23849 4.94452 4.94848 5.03249 4.7018 5.19731C4.45513 5.36214 4.26287 5.5964 4.14934 5.87049C4.03581 6.14458 4.0061 6.44618 4.06398 6.73715C4.12186 7.02813 4.26472 7.2954 4.4745 7.50518C4.68428 7.71496 4.95155 7.85782 5.24252 7.9157C5.5335 7.97358 5.8351 7.94387 6.10918 7.83034C6.38327 7.71681 6.61754 7.52455 6.78236 7.27787C6.94719 7.0312 7.03516 6.74119 7.03516 6.44452C7.03476 6.04682 6.8766 5.66552 6.59538 5.3843C6.31416 5.10308 5.93286 4.94492 5.53516 4.94452Z" fill="#696984"/>
<path d="M5.53516 14.9445L1.31716 9.97002C1.25855 9.89533 1.20055 9.82016 1.14316 9.74452C0.423013 8.79522 0.033819 7.63607 0.0351597 6.44452C0.0351597 4.98583 0.614622 3.58688 1.64607 2.55543C2.67752 1.52398 4.07647 0.944519 5.53516 0.944519C6.99385 0.944519 8.3928 1.52398 9.42425 2.55543C10.4557 3.58688 11.0352 4.98583 11.0352 6.44452C11.0363 7.63549 10.6473 8.79406 9.92766 9.74302L9.92716 9.74452C9.92716 9.74452 9.77716 9.94152 9.75466 9.96802L5.53516 14.9445ZM1.94166 9.14202C1.94166 9.14202 2.05816 9.29602 2.08466 9.32902L5.53516 13.3985L8.99016 9.32352C9.01216 9.29602 9.12966 9.14052 9.12966 9.14052C9.71827 8.36509 10.0364 7.41804 10.0352 6.44452C10.0352 5.25104 9.56105 4.10645 8.71714 3.26254C7.87323 2.41862 6.72863 1.94452 5.53516 1.94452C4.34169 1.94452 3.19709 2.41862 2.35318 3.26254C1.50927 4.10645 1.03516 5.25104 1.03516 6.44452C1.03393 7.41867 1.35238 8.36631 1.94166 9.14202Z" fill="#696984"/>
</svg>
