<svg width="21" height="21" viewBox="0 0 21 21" fill="none" xmlns="http://www.w3.org/2000/svg">
<path d="M15.5293 1.78432C17.0495 2.66201 18.3119 3.9244 19.1896 5.4446C20.0673 6.96481 20.5293 8.68926 20.5293 10.4446C20.5293 12.2 20.0672 13.9245 19.1895 15.4447C18.3118 16.9648 17.0494 18.2272 15.5292 19.1049C14.009 19.9826 12.2845 20.4446 10.5291 20.4446C8.77376 20.4445 7.04932 19.9825 5.52913 19.1047C4.00895 18.227 2.74659 16.9646 1.86893 15.4444C0.991277 13.9242 0.529252 12.1997 0.529297 10.4443L0.534297 10.1203C0.5903 8.39331 1.09284 6.71028 1.99294 5.23531C2.89303 3.76034 4.15995 2.54377 5.67019 1.7042C7.18043 0.864633 8.88244 0.430717 10.6103 0.444758C12.3382 0.458799 14.0329 0.920318 15.5293 1.78432ZM10.5293 4.44432C10.2641 4.44432 10.0097 4.54968 9.82219 4.73721C9.63465 4.92475 9.5293 5.1791 9.5293 5.44432V10.4443C9.5293 10.7095 9.63465 10.9639 9.82219 11.1514C10.0097 11.339 10.2641 11.4443 10.5293 11.4443C10.7945 11.4443 11.0489 11.339 11.2364 11.1514C11.4239 10.9639 11.5293 10.7095 11.5293 10.4443V5.44432C11.5293 5.1791 11.4239 4.92475 11.2364 4.73721C11.0489 4.54968 10.7945 4.44432 10.5293 4.44432Z" fill="#0B7077"/>
</svg>
