<svg width="46" height="46" viewBox="0 0 46 46" fill="none" xmlns="http://www.w3.org/2000/svg">
<path d="M20.5538 16.2697H25.0037V11.8198H20.5538M22.7788 40.7441C12.9668 40.7441 4.9792 32.7565 4.9792 22.9445C4.9792 13.1325 12.9668 5.14491 22.7788 5.14491C32.5908 5.14491 40.5784 13.1325 40.5784 22.9445C40.5784 32.7565 32.5908 40.7441 22.7788 40.7441ZM22.7788 0.695007C19.8569 0.695007 16.9637 1.27051 14.2643 2.38865C11.5648 3.50679 9.11208 5.14568 7.04602 7.21173C2.87343 11.3843 0.529297 17.0436 0.529297 22.9445C0.529297 28.8454 2.87343 34.5047 7.04602 38.6773C9.11208 40.7433 11.5648 42.3822 14.2643 43.5004C16.9637 44.6185 19.8569 45.194 22.7788 45.194C28.6797 45.194 34.339 42.8499 38.5116 38.6773C42.6841 34.5047 45.0283 28.8454 45.0283 22.9445C45.0283 20.0227 44.4528 17.1294 43.3346 14.43C42.2165 11.7306 40.5776 9.27779 38.5116 7.21173C36.4455 5.14568 33.9927 3.50679 31.2933 2.38865C28.5939 1.27051 25.7006 0.695007 22.7788 0.695007ZM20.5538 34.0692H25.0037V20.7195H20.5538V34.0692Z" fill="#0B7077"/>
</svg>
