<svg width="22" height="17" viewBox="0 0 22 17" fill="none" xmlns="http://www.w3.org/2000/svg">
<path fill-rule="evenodd" clip-rule="evenodd" d="M0.529297 2.90512C0.529297 2.35419 0.748151 1.82583 1.13771 1.43627C1.52728 1.0467 2.05564 0.82785 2.60657 0.82785H19.2247C19.7756 0.82785 20.304 1.0467 20.6936 1.43627C21.0831 1.82583 21.302 2.35419 21.302 2.90512V13.9839C21.302 14.5348 21.0831 15.0632 20.6936 15.4527C20.304 15.8423 19.7756 16.0612 19.2247 16.0612H2.60657C2.05564 16.0612 1.52728 15.8423 1.13771 15.4527C0.748151 15.0632 0.529297 14.5348 0.529297 13.9839L0.529297 2.90512ZM4.68383 6.36723C4.68383 5.63267 4.97564 4.92818 5.49506 4.40877C6.01448 3.88935 6.71896 3.59754 7.45353 3.59754C8.18809 3.59754 8.89258 3.88935 9.41199 4.40877C9.93141 4.92818 10.2232 5.63267 10.2232 6.36723C10.2232 7.1018 9.93141 7.80628 9.41199 8.3257C8.89258 8.84512 8.18809 9.13693 7.45353 9.13693C6.71896 9.13693 6.01448 8.84512 5.49506 8.3257C4.97564 7.80628 4.68383 7.1018 4.68383 6.36723ZM17.1474 6.36723H12.9929V4.98239H17.1474V6.36723ZM17.1474 10.5218H12.9929V9.13693H17.1474V10.5218ZM7.45353 10.5218C6.70075 10.5218 5.96285 10.7314 5.3225 11.1271C4.68215 11.5229 4.16465 12.0892 3.828 12.7625L3.371 13.6737C3.31805 13.7794 3.29303 13.8968 3.29832 14.0149C3.30361 14.133 3.33904 14.2477 3.40124 14.3482C3.46343 14.4487 3.55032 14.5317 3.65362 14.5891C3.75693 14.6465 3.87322 14.6765 3.99141 14.6763H10.9156C11.0337 14.6763 11.1498 14.6461 11.253 14.5886C11.3561 14.5311 11.4428 14.4481 11.5048 14.3476C11.5668 14.2472 11.6021 14.1325 11.6074 14.0145C11.6126 13.8966 11.5876 13.7792 11.5347 13.6737L11.0791 12.7625C10.7424 12.0892 10.2249 11.5229 9.58456 11.1271C8.94421 10.7314 8.2063 10.5218 7.45353 10.5218Z" fill="#0B7077"/>
</svg>
