<svg width="16" height="23" viewBox="0 0 16 23" fill="none" xmlns="http://www.w3.org/2000/svg">
<path d="M15.359 5.94856V2.20763C15.359 1.76222 15.1854 1.33505 14.8764 1.02009C14.5674 0.705138 14.1483 0.528198 13.7113 0.528198H2.17704C1.74003 0.528198 1.32092 0.705138 1.01191 1.02009C0.702898 1.33505 0.529297 1.76222 0.529297 2.20763V5.98635C0.530053 6.24705 0.590049 6.50402 0.70458 6.73713C0.819111 6.97023 0.985063 7.17312 1.18942 7.3299L6.57137 11.4445L1.18839 15.5591C0.984164 15.7159 0.818366 15.9189 0.704011 16.152C0.589656 16.3851 0.529853 16.642 0.529297 16.9027V20.6814C0.529297 21.1268 0.702898 21.554 1.01191 21.8689C1.32092 22.1839 1.74003 22.3608 2.17704 22.3608H13.7113C14.1483 22.3608 14.5674 22.1839 14.8764 21.8689C15.1854 21.554 15.359 21.1268 15.359 20.6814V16.9404C15.359 16.6806 15.2998 16.4243 15.1862 16.1917C15.0725 15.9591 14.9075 15.7566 14.704 15.6L9.30971 11.4445L14.704 7.28896C14.9072 7.13213 15.072 6.92954 15.1857 6.69701C15.2993 6.46449 15.3586 6.20833 15.359 5.94856Z" fill="#0B7077"/>
</svg>
