<svg width="19" height="21" viewBox="0 0 19 21" fill="none" xmlns="http://www.w3.org/2000/svg">
<path d="M18.5293 9.0375V16.0375C18.5293 16.5679 18.3186 17.0766 17.9435 17.4517C17.5684 17.8268 17.0597 18.0375 16.5293 18.0375H2.5293C1.99886 18.0375 1.49016 17.8268 1.11508 17.4517C0.74001 17.0766 0.529297 16.5679 0.529297 16.0375V9.0375H18.5293ZM13.5293 0.0375042C13.7945 0.0375042 14.0489 0.142861 14.2364 0.330397C14.4239 0.517934 14.5293 0.772288 14.5293 1.0375V2.0375H16.5293C17.0597 2.0375 17.5684 2.24822 17.9435 2.62329C18.3186 2.99836 18.5293 3.50707 18.5293 4.0375V7.0375H0.529297V4.0375C0.529297 3.50707 0.74001 2.99836 1.11508 2.62329C1.49016 2.24822 1.99886 2.0375 2.5293 2.0375H4.5293V1.0375C4.5293 0.772288 4.63465 0.517934 4.82219 0.330397C5.00973 0.142861 5.26408 0.0375042 5.5293 0.0375042C5.79451 0.0375042 6.04887 0.142861 6.2364 0.330397C6.42394 0.517934 6.5293 0.772288 6.5293 1.0375V2.0375H12.5293V1.0375C12.5293 0.772288 12.6347 0.517934 12.8222 0.330397C13.0097 0.142861 13.2641 0.0375042 13.5293 0.0375042Z" fill="#0B7077"/>
</svg>
