<svg width="33" height="33" viewBox="0 0 33 33" fill="none" xmlns="http://www.w3.org/2000/svg">
<rect x="0.726196" y="0.711914" width="32" height="32" rx="16" fill="#26FFDA"/>
<path d="M24.4762 16.7119C24.4762 12.4307 21.0074 8.96191 16.7262 8.96191C12.4449 8.96191 8.9762 12.4307 8.9762 16.7119C8.9762 20.58 11.8103 23.7863 15.5153 24.3682V18.9522H13.5465V16.7119H15.5153V15.0044C15.5153 13.0622 16.6715 11.9894 18.4424 11.9894C19.2906 11.9894 20.1774 12.1407 20.1774 12.1407V14.0469H19.1999C18.2374 14.0469 17.9371 14.6444 17.9371 15.2572V16.7119H20.0865L19.7428 18.9522H17.9371V24.3682C21.6421 23.7863 24.4762 20.58 24.4762 16.7119Z" fill="#0B7077"/>
</svg>
