<svg width="58" height="59" viewBox="0 0 58 59" fill="none" xmlns="http://www.w3.org/2000/svg">
<path fill-rule="evenodd" clip-rule="evenodd" d="M5.85297 6.47469C5.84792 6.48532 5.84735 6.49068 5.84735 6.49687V29.3664L5.84901 29.3707C5.85563 29.3873 5.87031 29.4142 5.89576 29.4428C5.92125 29.4715 5.94621 29.4892 5.96194 29.4977L5.96648 29.5L6.01833 29.5064C10.6761 30.1381 15.0779 31.8862 18.8666 34.5629V13.0667C15.3804 9.54896 10.8724 7.20586 5.97258 6.38062C5.96878 6.38079 5.9643 6.38158 5.95794 6.38358C5.94338 6.38811 5.92073 6.399 5.89707 6.41953C5.87341 6.44009 5.85951 6.46096 5.85297 6.47469ZM25.3026 40.6142C24.4967 41.1206 23.164 41.8071 21.6432 41.8273L21.5733 41.8278C20.2109 41.8275 19.0134 41.2878 18.2278 40.8388C17.4758 40.409 16.8334 39.9067 16.3957 39.5038C13.1785 37.0561 9.36535 35.4613 5.31282 34.907C2.55316 34.5805 0.389119 32.1388 0.400927 29.3574L0.400979 29.3477L3.12414 29.3642H0.400927V6.49721C0.400814 3.13935 3.42068 0.517794 6.74431 0.988478L6.80836 0.998326C12.3366 1.91584 17.4623 4.40383 21.5884 8.13698C25.7143 4.40387 30.8398 1.91584 36.3681 0.998326L36.4321 0.988478C39.7558 0.517794 42.7758 3.13916 42.7754 6.49704V14.3408C42.7754 15.8448 41.5563 17.064 40.0523 17.064C38.5483 17.064 37.3291 15.8448 37.3291 14.3408V6.49687C37.3291 6.49068 37.3285 6.48532 37.3235 6.47469C37.3169 6.46096 37.303 6.44009 37.2794 6.41953C37.2557 6.399 37.2331 6.38811 37.2185 6.38358C37.2122 6.38158 37.2077 6.38079 37.2039 6.38062C32.3055 7.20564 27.7989 9.54761 24.3131 13.0636V35.6241C25.0494 35.7503 25.731 36.1772 26.1597 36.8596C26.9599 38.1331 26.5762 39.8141 25.3026 40.6142ZM31.0827 27.0468C31.0827 23.621 33.8598 20.8439 37.2856 20.8439C40.7113 20.8439 43.4887 23.621 43.4887 27.0468V36.336H44.1993C51.5938 36.336 57.5888 42.3307 57.5888 49.7255V55.9431C57.5888 56.5209 57.3592 57.0751 56.9505 57.4838C56.5418 57.8921 55.988 58.1217 55.4102 58.1217H30.2355C29.5889 58.1217 28.9758 57.8346 28.5619 57.3378L26.1767 54.4756C21.9451 49.3978 24.6953 41.692 31.0827 40.3677V27.0468Z" fill="#0B7077"/>
</svg>
