<svg width="33" height="33" viewBox="0 0 33 33" fill="none" xmlns="http://www.w3.org/2000/svg">
<rect x="0.726196" y="0.711914" width="32" height="32" rx="16" fill="#26FFDA"/>
<path d="M16.7291 13.1183C14.7416 13.1183 13.1385 14.7214 13.1385 16.7089C13.1385 18.6964 14.7416 20.2995 16.7291 20.2995C18.7166 20.2995 20.3197 18.6964 20.3197 16.7089C20.3197 14.7214 18.7166 13.1183 16.7291 13.1183ZM16.7291 19.0433C15.4447 19.0433 14.3947 17.9964 14.3947 16.7089C14.3947 15.4214 15.4416 14.3745 16.7291 14.3745C18.0166 14.3745 19.0635 15.4214 19.0635 16.7089C19.0635 17.9964 18.0135 19.0433 16.7291 19.0433ZM21.3041 12.9714C21.3041 13.437 20.9291 13.8089 20.4666 13.8089C20.001 13.8089 19.6291 13.4339 19.6291 12.9714C19.6291 12.5089 20.0041 12.1339 20.4666 12.1339C20.9291 12.1339 21.3041 12.5089 21.3041 12.9714ZM23.6822 13.8214C23.6291 12.6995 23.3729 11.7058 22.551 10.887C21.7322 10.0683 20.7385 9.81201 19.6166 9.75576C18.4604 9.69014 14.9947 9.69014 13.8385 9.75576C12.7197 9.80889 11.726 10.0651 10.9041 10.8839C10.0822 11.7026 9.8291 12.6964 9.77285 13.8183C9.70723 14.9745 9.70723 18.4401 9.77285 19.5964C9.82598 20.7183 10.0822 21.712 10.9041 22.5308C11.726 23.3495 12.7166 23.6058 13.8385 23.662C14.9947 23.7276 18.4604 23.7276 19.6166 23.662C20.7385 23.6089 21.7322 23.3526 22.551 22.5308C23.3697 21.712 23.626 20.7183 23.6822 19.5964C23.7479 18.4401 23.7479 14.9776 23.6822 13.8214ZM22.1885 20.837C21.9447 21.4495 21.4729 21.9214 20.8572 22.1683C19.9354 22.5339 17.7479 22.4495 16.7291 22.4495C15.7104 22.4495 13.5197 22.5308 12.601 22.1683C11.9885 21.9245 11.5166 21.4526 11.2697 20.837C10.9041 19.9151 10.9885 17.7276 10.9885 16.7089C10.9885 15.6901 10.9072 13.4995 11.2697 12.5808C11.5135 11.9683 11.9854 11.4964 12.601 11.2495C13.5229 10.8839 15.7104 10.9683 16.7291 10.9683C17.7479 10.9683 19.9385 10.887 20.8572 11.2495C21.4697 11.4933 21.9416 11.9651 22.1885 12.5808C22.5541 13.5026 22.4697 15.6901 22.4697 16.7089C22.4697 17.7276 22.5541 19.9183 22.1885 20.837Z" fill="#0B7077"/>
</svg>
