<svg width="78" height="85" viewBox="0 0 78 85" fill="none" xmlns="http://www.w3.org/2000/svg">
<path d="M8.28635 55.3004L12.7274 58.0735C12.7379 58.0839 12.7587 58.0943 12.7691 58.1048L14.0931 58.9388L14.1244 58.97C17.1057 60.6939 20.4906 61.5968 23.9344 61.5867C28.6153 61.5867 33.0251 59.95 36.5488 57.0205C41.366 52.9812 47.4533 50.77 53.7398 50.7759C59.1922 50.7759 64.3943 52.4126 68.8145 55.4151L69.6381 55.9363L58.0037 25.8078V7.70977H64.6236C65.0824 7.70977 65.4577 7.33446 65.4577 6.87576V1.47555C65.4577 1.01684 65.0824 0.641541 64.6236 0.641541H13.061C12.6023 0.641541 12.227 1.01684 12.227 1.47555V6.88618C12.227 7.34489 12.6023 7.72019 13.061 7.72019H19.681V25.8182L8.28635 55.3004ZM43.002 34.127C45.2955 34.127 47.1616 35.9931 47.1616 38.2866C47.1616 40.5801 45.2955 42.4462 43.002 42.4462C40.7084 42.4462 38.8424 40.5801 38.8424 38.2866C38.8424 35.9931 40.7084 34.127 43.002 34.127ZM76.9983 74.983L73.8811 66.914L64.9468 61.3365L64.9364 61.347C64.8634 61.2948 64.78 61.2427 64.7071 61.1906L63.8626 60.6693L63.8313 60.6381C60.8081 58.8137 57.3365 57.8441 53.719 57.8441C49.0381 57.8441 44.6283 59.4809 41.1046 62.4103C36.2874 66.4496 30.2002 68.6608 23.9136 68.655C18.3883 68.655 13.1236 66.9765 8.67208 63.9011L5.65922 62.0142L0.686439 74.983C0.394536 75.7545 0.238159 76.5676 0.238159 77.3808C0.238159 81.0504 3.21974 84.032 6.88938 84.032H70.7849C71.6085 84.032 72.4216 83.8756 73.1827 83.5837C73.9998 83.272 74.7472 82.8018 75.3818 82.2C76.0165 81.5983 76.5258 80.8769 76.8804 80.0775C77.2351 79.278 77.4281 78.4163 77.4483 77.542C77.4685 76.6677 77.3156 75.798 76.9983 74.983Z" fill="#0B7077"/>
</svg>
