<svg width="41" height="40" viewBox="0 0 41 40" fill="none" xmlns="http://www.w3.org/2000/svg">
<rect x="0.974609" width="40" height="40" rx="20" fill="#0B7077"/>
<g clip-path="url(#clip0_534_2180)">
<path d="M13.6309 15.4688H16.8809V25.1875H13.6309V15.4688ZM15.2559 10.8125C14.1621 10.8125 13.4434 11.5312 13.4434 12.4688C13.4434 13.4062 14.1309 14.1562 15.2246 14.1562H15.2559C16.3809 14.1562 17.0684 13.4062 17.0684 12.4688C17.0684 11.5312 16.3809 10.8125 15.2559 10.8125ZM24.7871 15.25C23.0684 15.25 22.2871 16.1875 21.8809 16.875V15.4688H18.6621C18.6621 15.4688 18.6934 16.4062 18.6621 25.1875H21.8809V19.7812C21.8809 19.4688 21.9121 19.1875 21.9746 18.9688C22.2246 18.4062 22.7559 17.8125 23.6309 17.8125C24.8184 17.8125 25.2871 18.6875 25.2871 20V25.1875H28.5059V19.625C28.5059 16.6562 26.9121 15.25 24.7871 15.25Z" fill="white"/>
</g>
<defs>
<clipPath id="clip0_534_2180">
<rect width="16" height="16" fill="white" transform="matrix(1 0 0 -1 12.9746 26)"/>
</clipPath>
</defs>
</svg>
