<svg width="33" height="33" viewBox="0 0 33 33" fill="none" xmlns="http://www.w3.org/2000/svg">
<rect x="0.726196" y="0.711914" width="32" height="32" rx="16" fill="#26FFDA"/>
<g clip-path="url(#clip0_73_4143)">
<path d="M9.38245 14.1807H12.6324V23.8994H9.38245V14.1807ZM11.0074 9.52441C9.9137 9.52441 9.19495 10.2432 9.19495 11.1807C9.19495 12.1182 9.88245 12.8682 10.9762 12.8682H11.0074C12.1324 12.8682 12.8199 12.1182 12.8199 11.1807C12.8199 10.2432 12.1324 9.52441 11.0074 9.52441ZM20.5387 13.9619C18.8199 13.9619 18.0387 14.8994 17.6324 15.5869V14.1807H14.4137C14.4137 14.1807 14.4449 15.1182 14.4137 23.8994H17.6324V18.4932C17.6324 18.1807 17.6637 17.8994 17.7262 17.6807C17.9762 17.1182 18.5074 16.5244 19.3824 16.5244C20.5699 16.5244 21.0387 17.3994 21.0387 18.7119V23.8994H24.2574V18.3369C24.2574 15.3682 22.6637 13.9619 20.5387 13.9619Z" fill="#0B7077"/>
</g>
<defs>
<clipPath id="clip0_73_4143">
<rect width="16" height="16" fill="white" transform="matrix(1 0 0 -1 8.7262 24.7119)"/>
</clipPath>
</defs>
</svg>
