<svg width="15" height="15" viewBox="0 0 15 15" fill="none" xmlns="http://www.w3.org/2000/svg">
<g clip-path="url(#clip0_73_3377)">
<path d="M13.2666 0.555176H1.72754C1.04395 0.555176 0.49707 1.10205 0.49707 1.78564V10.0161C0.49707 10.6997 1.04395 11.2739 1.72754 11.2739H2.1377V14.6372L5.99316 11.2739H13.2666C13.9502 11.2739 14.4971 10.6997 14.4971 10.0161V1.78564C14.4971 1.10205 13.9502 0.555176 13.2666 0.555176ZM13.6768 10.0161C13.6768 10.2622 13.4854 10.4263 13.2666 10.4263H5.69238L2.95801 12.8325V10.4263H1.72754C1.50879 10.4263 1.31738 10.2622 1.31738 10.0161V1.78564C1.31738 1.56689 1.50879 1.37549 1.72754 1.37549H13.2666C13.4854 1.37549 13.6768 1.56689 13.6768 1.78564V10.0161Z" fill="#696984"/>
</g>
<defs>
<clipPath id="clip0_73_3377">
<rect width="14" height="14" fill="white" transform="matrix(1 0 0 -1 0.49707 14.5552)"/>
</clipPath>
</defs>
</svg>
