<svg width="36" height="37" viewBox="0 0 36 37" fill="none" xmlns="http://www.w3.org/2000/svg">
<path d="M18.3521 2.6861C15.1623 2.68997 12.1043 3.995 9.84884 6.31492C7.59335 8.63485 6.32457 11.7802 6.32081 15.0611C6.31788 17.7421 7.16924 20.3502 8.74456 22.4861C8.74456 22.4861 9.07268 22.9305 9.12628 22.9946L18.3521 34.1861L27.5822 22.989C27.6303 22.9293 27.9596 22.4861 27.9596 22.4861L27.9607 22.4827C29.5349 20.3476 30.3858 17.7408 30.3833 15.0611C30.3795 11.7802 29.1108 8.63485 26.8553 6.31492C24.5998 3.995 21.5418 2.68997 18.3521 2.6861ZM18.3521 19.5611C17.4868 19.5611 16.6409 19.2972 15.9214 18.8027C15.202 18.3082 14.6412 17.6054 14.3101 16.7832C13.979 15.9609 13.8923 15.0561 14.0611 14.1832C14.2299 13.3103 14.6466 12.5085 15.2585 11.8791C15.8703 11.2498 16.6499 10.8212 17.4985 10.6476C18.3472 10.4739 19.2269 10.563 20.0263 10.9036C20.8257 11.2442 21.509 11.821 21.9897 12.561C22.4705 13.3011 22.7271 14.1711 22.7271 15.0611C22.7256 16.2541 22.2642 17.3978 21.4441 18.2414C20.6239 19.085 19.5119 19.5596 18.3521 19.5611Z" fill="#0B7077"/>
</svg>
