<svg width="37" height="37" viewBox="0 0 37 37" fill="none" xmlns="http://www.w3.org/2000/svg">
<path d="M32.347 28.9886C32.1586 29.8331 31.6915 30.5897 31.021 31.1366C30.2884 31.8795 29.4154 32.4695 28.4529 32.8722C27.4904 33.275 26.4574 33.4824 25.414 33.4826H24.9265C22.7364 33.3648 20.5919 32.8104 18.619 31.8521H18.604C18.1465 31.6391 17.674 31.4261 17.2165 31.1666C14.9145 29.8731 12.802 28.2679 10.939 26.3966C8.52316 24.1278 6.5408 21.4379 5.089 18.4586C4.31714 16.826 3.80207 15.0839 3.562 13.2941C3.20685 11.4207 3.41944 9.48388 4.1725 7.7321C4.6472 6.94186 5.22643 6.21933 5.8945 5.5841C6.19492 5.24355 6.56257 4.96886 6.97431 4.77732C7.38606 4.58577 7.833 4.48151 8.287 4.4711C8.78044 4.52646 9.25805 4.67888 9.69234 4.91958C10.1266 5.16028 10.509 5.48451 10.8175 5.8736C11.503 6.6191 12.34 7.3961 13.027 8.1131L13.972 9.0431C14.527 9.5351 14.8705 10.2221 14.932 10.9631C14.932 11.6426 14.6815 12.2981 14.23 12.8066C13.9373 13.162 13.6269 13.5024 13.3 13.8266L12.9955 14.1461C12.8185 14.3111 12.6835 14.5151 12.5995 14.7416C12.5245 14.9621 12.4945 15.1946 12.5095 15.4271C12.751 16.0736 13.1305 16.6616 13.6195 17.1491C14.383 18.1841 15.145 19.0841 15.922 20.0591C17.3274 21.6907 18.9953 23.0762 20.857 24.1586C21.0475 24.2981 21.2665 24.3911 21.499 24.4316C21.7 24.4466 21.904 24.4166 22.093 24.3416C22.6255 24.0281 23.098 23.6261 23.494 23.1521C24.0269 22.5004 24.7912 22.0801 25.627 21.9791C26.4314 21.9905 27.1986 22.3194 27.7615 22.8941C28.066 23.1521 28.4005 23.5031 28.7215 23.8391L29.1775 24.3101L29.65 24.7676L30.4585 25.5896C30.94 26.0171 31.393 26.4746 31.8145 26.9621C32.2375 27.5471 32.428 28.2716 32.347 28.9886ZM26.878 18.5501C26.5761 18.5462 26.2876 18.4245 26.0741 18.211C25.8606 17.9975 25.7389 17.709 25.735 17.4071C25.7366 16.5443 25.5678 15.6896 25.2383 14.8921C24.9089 14.0947 24.4252 13.3701 23.8151 12.76C23.205 12.1499 22.4804 11.6662 21.6829 11.3368C20.8855 11.0073 20.0308 10.8385 19.168 10.8401C18.8649 10.8401 18.5741 10.7197 18.3598 10.5053C18.1454 10.291 18.025 10.0002 18.025 9.6971C18.025 9.39396 18.1454 9.10323 18.3598 8.88888C18.5741 8.67452 18.8649 8.5541 19.168 8.5541C20.3311 8.55232 21.4831 8.7801 22.558 9.22437C23.6329 9.66865 24.6095 10.3207 25.432 11.1431C26.2544 11.9656 26.9064 12.9422 27.3507 14.0171C27.795 15.092 28.0228 16.244 28.021 17.4071C28.021 17.5572 27.9914 17.7058 27.934 17.8445C27.8766 17.9832 27.7924 18.1092 27.6862 18.2153C27.5801 18.3215 27.4541 18.4057 27.3154 18.4631C27.1767 18.5205 27.0281 18.5501 26.878 18.5501Z" fill="#0B7077"/>
<path d="M32.1657 18.0161C31.864 18.0122 31.5758 17.8908 31.3623 17.6776C31.1488 17.4644 31.027 17.1763 31.0227 16.8746C31.0251 15.4044 30.7375 13.9483 30.1765 12.5894C29.6155 11.2305 28.792 9.99552 27.7533 8.95521C26.7145 7.91489 25.4807 7.08961 24.1227 6.5266C22.7646 5.96359 21.3088 5.6739 19.8387 5.6741C19.6852 5.67966 19.5322 5.65423 19.3887 5.59934C19.2453 5.54444 19.1144 5.46119 19.0038 5.35458C18.8933 5.24796 18.8054 5.12016 18.7453 4.9788C18.6852 4.83744 18.6543 4.68543 18.6543 4.53185C18.6543 4.37826 18.6852 4.22625 18.7453 4.08489C18.8054 3.94354 18.8933 3.81573 19.0038 3.70912C19.1144 3.6025 19.2453 3.51926 19.3887 3.46436C19.5322 3.40946 19.6852 3.38403 19.8387 3.3896C21.6089 3.3896 23.3617 3.7385 24.9969 4.41637C26.6321 5.09424 28.1177 6.08778 29.3687 7.34017C30.6197 8.59257 31.6116 10.0793 32.2877 11.7152C32.9637 13.3512 33.3107 15.1044 33.3087 16.8746C33.3087 17.0247 33.2791 17.1733 33.2217 17.312C33.1643 17.4507 33.0801 17.5767 32.9739 17.6828C32.8678 17.789 32.7418 17.8732 32.6031 17.9306C32.4644 17.988 32.3158 18.0161 32.1657 18.0161Z" fill="#0B7077"/>
</svg>
