<svg width="37" height="37" viewBox="0 0 37 37" fill="none" xmlns="http://www.w3.org/2000/svg">
<g clip-path="url(#clip0_657_6587)">
<path d="M33.3521 8.6861H13.8521C12.2021 8.6861 10.8521 10.0361 10.8521 11.6861V25.1861C10.8521 25.9817 11.1681 26.7448 11.7307 27.3074C12.2933 27.87 13.0564 28.1861 13.8521 28.1861H33.3521C35.0171 28.1861 36.3521 26.8511 36.3521 25.1861V11.6861C36.3521 10.8904 36.036 10.1274 35.4734 9.56478C34.9108 9.00217 34.1477 8.6861 33.3521 8.6861ZM33.3521 14.1911L23.6021 19.1861L13.8521 14.1911V11.6861L23.6021 16.6511L33.3521 11.6861V14.1911ZM7.85205 25.1861C7.85205 25.4411 7.89705 25.6811 7.92705 25.9361H1.85205C1.02405 25.9361 0.352051 25.2611 0.352051 24.4361C0.352051 23.6111 1.02405 22.9361 1.85205 22.9361H7.85205V25.1861ZM4.85205 10.9361H7.92705C7.89705 11.1911 7.85205 11.4311 7.85205 11.6861V13.9361H4.85205C4.02705 13.9361 3.35205 13.2611 3.35205 12.4361C3.35205 11.6111 4.02705 10.9361 4.85205 10.9361ZM1.85205 18.4361C1.85205 17.6111 2.52705 16.9361 3.35205 16.9361H7.85205V19.9361H3.35205C2.52705 19.9361 1.85205 19.2611 1.85205 18.4361Z" fill="#0B7077"/>
</g>
<defs>
<clipPath id="clip0_657_6587">
<rect width="36" height="36" fill="white" transform="translate(0.352051 0.436096)"/>
</clipPath>
</defs>
</svg>
