<svg width="55" height="69" viewBox="0 0 55 69" fill="none" xmlns="http://www.w3.org/2000/svg">
<path d="M27.7227 68.3553C19.8795 66.3804 13.4041 61.8799 8.2965 54.8538C3.18886 47.8277 0.636172 40.0274 0.638429 31.453V10.8013L27.7227 0.644714L54.8069 10.8013V31.453C54.8069 40.0297 52.2542 47.8311 47.1488 54.8572C42.0434 61.8833 35.5681 66.3827 27.7227 68.3553ZM27.7227 61.2457C33.1959 59.5529 37.7664 56.2091 41.434 51.2144C45.1017 46.2196 47.2459 40.6481 47.8666 34.5H27.7227V7.83896L7.40949 15.4564V32.9765C7.40949 33.3715 7.46591 33.8793 7.57876 34.5H27.7227V61.2457Z" fill="white"/>
</svg>
