<svg width="18" height="21" viewBox="0 0 18 21" fill="none" xmlns="http://www.w3.org/2000/svg">
<path d="M8.67176 20.1711C9.26079 20.1713 9.82964 19.9565 10.2715 19.5669C10.7133 19.1774 10.9978 18.64 11.0714 18.0555C11.092 17.8899 10.9541 17.7533 10.7873 17.7533H6.5562C6.38938 17.7533 6.25156 17.8899 6.27211 18.0555C6.34574 18.64 6.63019 19.1774 7.07203 19.5669C7.51387 19.9565 8.08272 20.1713 8.67176 20.1711ZM2.62732 6.87333C2.62732 5.27024 3.26414 3.73282 4.39769 2.59926C5.53124 1.46571 7.06867 0.828888 8.67176 0.828888C10.2748 0.828888 11.8123 1.46571 12.9458 2.59926C14.0794 3.73282 14.7162 5.27024 14.7162 6.87333V10.4359C14.7162 10.4972 14.7331 10.5532 14.767 10.604L16.8257 13.6927C17.0092 13.9691 17.1143 14.2901 17.13 14.6215C17.1456 14.9529 17.0712 15.2824 16.9146 15.5749C16.758 15.8674 16.5251 16.112 16.2406 16.2827C15.9561 16.4534 15.6307 16.5439 15.2989 16.5444H2.04463C1.71216 16.5452 1.38574 16.4556 1.10032 16.2851C0.814898 16.1146 0.581238 15.8696 0.424362 15.5765C0.267487 15.2834 0.193307 14.9531 0.209767 14.621C0.226228 14.289 0.332709 13.9676 0.517805 13.6915L2.57654 10.604C2.60908 10.5539 2.62669 10.4956 2.62732 10.4359V6.87333ZM8.67176 2.64222C7.5496 2.64222 6.4734 3.088 5.67991 3.88148C4.88642 4.67497 4.44065 5.75117 4.44065 6.87333V10.4359C4.44065 10.8542 4.31734 11.2616 4.08523 11.6085L2.0265 14.6985L2.02287 14.7106L2.02408 14.7178C2.02408 14.7202 2.02569 14.7226 2.02892 14.7251L2.03617 14.7299L2.04463 14.7311H15.2989L15.3073 14.7299L15.3146 14.7251L15.3194 14.7178L15.3206 14.7093L15.317 14.6973L13.2583 11.6098C13.0267 11.2625 12.9031 10.8545 12.9029 10.4371V6.87333C12.9029 5.75117 12.4571 4.67497 11.6636 3.88148C10.8701 3.088 9.79392 2.64222 8.67176 2.64222Z" fill="white"/>
</svg>
