<svg width="41" height="40" viewBox="0 0 41 40" fill="none" xmlns="http://www.w3.org/2000/svg">
<rect x="0.974609" width="40" height="40" rx="20" fill="#0B7077"/>
<path d="M27.1309 15.8437C27.1309 19.4687 25.1309 22.125 22.1934 22.125C21.1934 22.125 20.2559 21.5937 19.9434 21C19.4121 23.0937 19.3184 23.5 19.3184 23.5C19.1309 24.1875 18.7246 24.9062 18.3809 25.4375C17.4121 26.1562 17.3184 25.0625 17.3184 25.0625C17.2871 24.4375 17.2871 23.6562 17.4746 22.9687C17.4746 22.9687 17.6309 22.2187 18.6309 18C18.3496 17.4062 18.3496 16.5312 18.3496 16.5312C18.3496 15.1875 19.1309 14.1562 20.0996 14.1562C20.9434 14.1562 21.3496 14.8125 21.3496 15.5625C21.3496 16.375 20.8184 17.625 20.5371 18.7812C20.3184 19.75 21.0371 20.5625 21.9746 20.5625C23.7246 20.5625 24.8809 18.3125 24.8809 15.6875C24.8809 13.6875 23.5371 12.1875 21.0684 12.1875C18.2871 12.1875 16.5684 14.25 16.5684 16.5625C16.5684 17.375 16.8184 17.9062 17.1934 18.375C17.3496 18.5625 17.3809 18.625 17.3184 18.875C17.2559 19.0312 17.1621 19.4375 17.1309 19.5937C17.0684 19.8437 16.8809 19.9062 16.6621 19.8437C15.4121 19.3125 14.7871 17.9062 14.7871 16.3437C14.7871 13.75 16.9746 10.625 21.3184 10.625C24.8184 10.625 27.1309 13.1562 27.1309 15.8437Z" fill="white"/>
</svg>
