<svg width="7" height="10" viewBox="0 0 7 10" fill="none" xmlns="http://www.w3.org/2000/svg">
<path d="M3.40039 0.0554199C1.62305 0.0554199 0.158203 1.50073 0.158203 3.29761C0.158203 5.8562 3.04883 9.21558 3.18555 9.37183L3.40039 9.62573L3.61523 9.37183C3.75195 9.21558 6.64258 5.8562 6.64258 3.29761C6.64258 1.50073 5.17773 0.0554199 3.40039 0.0554199ZM3.40039 8.70776C2.7168 7.86792 0.744141 5.25073 0.744141 3.29761C0.744141 1.83276 1.93555 0.641357 3.40039 0.641357C4.86523 0.641357 6.05664 1.83276 6.05664 3.29761C6.05664 5.25073 4.08398 7.86792 3.40039 8.70776ZM3.40039 1.61792C2.42383 1.61792 1.64258 2.39917 1.64258 3.37573C1.64258 4.35229 2.42383 5.13354 3.40039 5.13354C4.37695 5.13354 5.1582 4.35229 5.1582 3.37573C5.1582 2.39917 4.37695 1.61792 3.40039 1.61792ZM3.40039 4.54761C2.75586 4.54761 2.22852 4.02026 2.22852 3.37573C2.22852 2.7312 2.75586 2.20386 3.40039 2.20386C4.04492 2.20386 4.57227 2.7312 4.57227 3.37573C4.57227 4.02026 4.04492 4.54761 3.40039 4.54761Z" fill="white" fill-opacity="0.8"/>
</svg>
