<svg width="62" height="61" viewBox="0 0 62 61" fill="none" xmlns="http://www.w3.org/2000/svg">
<path d="M35.2788 42.8147C34.7792 44.9719 37.1228 46.6766 39.0255 45.544C39.8207 45.0707 40.8184 45.0707 41.6136 45.544C43.5163 46.6766 45.8599 44.9719 45.3603 42.8147C45.1532 41.9204 45.4541 40.9821 46.1443 40.3769C47.798 38.9271 46.8981 36.202 44.7063 36.0212C43.782 35.945 42.9764 35.3616 42.6157 34.5072C41.7584 32.4768 38.8807 32.4768 38.0234 34.5072C37.6627 35.3616 36.8571 35.945 35.9328 36.0212C33.741 36.202 32.8411 38.9271 34.4948 40.3769C35.185 40.9821 35.4859 41.9204 35.2788 42.8147ZM12.2484 38.1732C13.5054 38.1732 14.5244 39.1922 14.5244 40.4493C14.5244 41.7063 13.5054 42.7253 12.2484 42.7253H7.69629C3.92522 42.7253 0.868164 39.6683 0.868164 35.8972V8.2392C0.868164 3.82092 4.44989 0.239197 8.86816 0.239197H36.5261C40.2972 0.239197 43.3543 3.29625 43.3543 7.06732V11.6194C43.3543 12.8764 42.3353 13.8954 41.0782 13.8954C39.8212 13.8954 38.8022 12.8764 38.8022 11.6194V9.34336C38.8022 6.82932 36.7642 4.79128 34.2501 4.79128H13.4202C9.00197 4.79128 5.42025 8.373 5.42025 12.7913V33.6211C5.42025 36.1352 7.45829 38.1732 9.97233 38.1732H12.2484ZM27.0765 60.9336C22.6582 60.9336 19.0765 57.3519 19.0765 52.9336V26.4475C19.0765 22.0293 22.6582 18.4475 27.0765 18.4475H53.5626C57.9809 18.4475 61.5626 22.0293 61.5626 26.4475V52.9336C61.5626 57.3519 57.9809 60.9336 53.5626 60.9336H27.0765Z" fill="#0B7077"/>
</svg>
