<svg width="56" height="66" viewBox="0 0 56 66" fill="none" xmlns="http://www.w3.org/2000/svg">
<path fill-rule="evenodd" clip-rule="evenodd" d="M9.36452 0.308247L37.6481 0.293675V11.4797L9.36452 11.4942C8.08705 11.4957 6.84266 11.0821 5.81352 10.314L1.22881 6.87996C1.07838 6.76705 0.956149 6.61991 0.871918 6.45035C0.787688 6.2808 0.74381 6.09356 0.74381 5.90368C0.74381 5.71379 0.787688 5.52655 0.871918 5.357C0.956149 5.18744 1.07838 5.0403 1.22881 4.92739L5.81831 1.48853C6.84422 0.72062 8.085 0.305392 9.35974 0.30339L9.36452 0.308247ZM49.2917 11.47L43.6302 11.4748V0.288818H49.3109C52.345 0.33739 54.6661 3.07196 54.6661 5.87453C54.6661 8.68196 52.345 11.4214 49.3109 11.47H49.2917ZM20.9077 22.69C22.5109 23.3408 23.8748 24.0548 25.0569 24.764V65.5057C23.2332 64.1148 21.2382 62.9717 19.1226 62.1057C15.6051 60.6777 10.5322 59.4974 2.79374 59.4974C2.15911 59.4974 1.55048 59.2415 1.10173 58.7861C0.652983 58.3306 0.400879 57.7129 0.400879 57.0688V22.1557C0.400879 21.5116 0.652983 20.8939 1.10173 20.4384C1.55048 19.983 2.15911 19.7271 2.79374 19.7271C11.0252 19.7271 16.7202 20.9851 20.9077 22.69ZM36.9685 62.1057C34.3842 63.1597 32.5704 64.3691 31.0342 65.5008V24.764C32.2163 24.0548 33.585 23.3408 35.1882 22.69C39.3757 20.9851 45.0707 19.7271 53.3022 19.7271C53.9368 19.7271 54.5454 19.983 54.9942 20.4384C55.4429 20.8939 55.695 21.5116 55.695 22.1557V57.0688C55.695 57.7129 55.4429 58.3306 54.9942 58.7861C54.5454 59.2415 53.9368 59.4974 53.3022 59.4974C45.5637 59.4974 40.4908 60.6728 36.9685 62.1057Z" fill="#0B7077"/>
</svg>
