<svg width="142" height="107" viewBox="0 0 142 107" fill="none" xmlns="http://www.w3.org/2000/svg">
<path d="M141.515 53.9723V96.8973C141.515 99.576 140.451 102.145 138.557 104.039C136.663 105.933 134.094 106.997 131.415 106.997H10.2152C7.53655 106.997 4.96758 105.933 3.07346 104.039C1.17934 102.145 0.115234 99.576 0.115234 96.8973V53.9723C0.115234 53.3026 0.381261 52.6604 0.854791 52.1868C1.32832 51.7133 1.97056 51.4473 2.64024 51.4473H25.3652V91.8473C25.3637 92.5396 25.5046 93.2248 25.779 93.8604C26.0535 94.4959 26.4557 95.0683 26.9606 95.5419C27.4656 96.0155 28.0625 96.3802 28.7144 96.6133C29.3662 96.8465 30.059 96.9432 30.7498 96.8973C32.0506 96.7856 33.2606 96.1847 34.1358 95.2159C35.0109 94.247 35.486 92.9823 35.4653 91.6769V51.4473H60.7153V64.0723C60.7153 64.742 60.9813 65.3842 61.4548 65.8577C61.9283 66.3313 62.5706 66.5973 63.2403 66.5973H78.3903C79.0599 66.5973 79.7022 66.3313 80.1757 65.8577C80.6493 65.3842 80.9153 64.742 80.9153 64.0723V51.4473H106.165V91.8473C106.164 92.5396 106.305 93.2248 106.579 93.8604C106.854 94.4959 107.256 95.0683 107.761 95.5419C108.266 96.0155 108.863 96.3802 109.514 96.6133C110.166 96.8465 110.859 96.9432 111.55 96.8973C112.848 96.7858 114.057 96.1866 114.931 95.2205C115.806 94.2543 116.283 92.9927 116.265 91.6895V51.4473H138.99C139.66 51.4473 140.302 51.7133 140.776 52.1868C141.249 52.6604 141.515 53.3026 141.515 53.9723ZM106.165 0.947266H35.4653C26.0898 0.947266 17.0984 4.67163 10.469 11.301C3.8396 17.9305 0.115234 26.9219 0.115234 36.2973V38.8223C0.115234 39.492 0.381261 40.1342 0.854791 40.6077C1.32832 41.0813 1.97056 41.3473 2.64024 41.3473H25.3652V16.2677C25.3445 14.9623 25.8196 13.6976 26.6947 12.7287C27.5699 11.7599 28.7799 11.159 30.0807 11.0473C30.7715 11.0014 31.4643 11.0981 32.1161 11.3312C32.768 11.5644 33.3649 11.9291 33.8699 12.4027C34.3748 12.8763 34.777 13.4486 35.0515 14.0842C35.3259 14.7198 35.4668 15.405 35.4653 16.0973V41.3473H60.7153V33.7723C60.7153 33.1026 60.9813 32.4604 61.4548 31.9868C61.9283 31.5133 62.5706 31.2473 63.2403 31.2473H78.3903C79.0599 31.2473 79.7022 31.5133 80.1757 31.9868C80.6493 32.4604 80.9153 33.1026 80.9153 33.7723V41.3473H106.165V16.2677C106.145 14.9623 106.62 13.6976 107.495 12.7287C108.37 11.7599 109.58 11.159 110.881 11.0473C111.572 11.0014 112.264 11.0981 112.916 11.3312C113.568 11.5644 114.165 11.9291 114.67 12.4027C115.175 12.8763 115.577 13.4486 115.852 14.0842C116.126 14.7198 116.267 15.405 116.265 16.0973V41.3473H138.99C139.66 41.3473 140.302 41.0813 140.776 40.6077C141.249 40.1342 141.515 39.492 141.515 38.8223V36.2973C141.515 26.9219 137.791 17.9305 131.162 11.301C124.532 4.67163 115.541 0.947266 106.165 0.947266Z" fill="#0B7077"/>
</svg>
