<svg width="111" height="139" viewBox="0 0 111 139" fill="none" xmlns="http://www.w3.org/2000/svg">
<path d="M55.3071 138.165C39.369 134.152 26.2103 125.007 15.8311 110.729C5.4518 96.4512 0.26446 80.6002 0.269046 63.1761V21.2096L55.3071 0.570312L110.345 21.2096V63.1761C110.345 80.6048 105.158 96.4581 94.7831 110.736C84.4085 125.014 71.2498 134.157 55.3071 138.165ZM55.3071 103.767C64.8241 103.767 72.9376 100.412 79.6477 93.7016C86.3577 86.9915 89.7105 78.8803 89.7059 69.3679C89.7013 59.8555 86.3463 51.7442 79.6408 45.0342C72.9353 38.3241 64.8241 34.9691 55.3071 34.9691C45.7901 34.9691 37.6789 38.3241 30.9734 45.0342C24.2679 51.7442 20.9129 59.8555 20.9083 69.3679C20.9037 78.8803 24.2588 86.9938 30.9734 93.7084C37.688 100.423 45.7993 103.776 55.3071 103.767ZM66.6587 85.5353L51.8672 70.7438V48.7286H58.747V67.9919L71.4745 80.7195L66.6587 85.5353Z" fill="#0B7077"/>
</svg>
