<svg width="110" height="157" viewBox="0 0 110 157" fill="none" xmlns="http://www.w3.org/2000/svg">
<path d="M55.353 0.360779C40.8709 0.360779 26.9819 6.11378 16.7415 16.3542C6.50105 26.5946 0.748047 40.4836 0.748047 54.9657C0.748047 73.5314 10.0309 89.8349 24.1502 99.7418V117.371C24.1502 119.44 24.972 121.424 26.4349 122.887C27.8979 124.35 29.882 125.172 31.9509 125.172H78.7551C80.824 125.172 82.8081 124.35 84.2711 122.887C85.734 121.424 86.5558 119.44 86.5558 117.371V99.7418C100.675 89.8349 109.958 73.5314 109.958 54.9657C109.958 40.4836 104.205 26.5946 93.9645 16.3542C83.7241 6.11378 69.8351 0.360779 55.353 0.360779ZM31.9509 148.574C31.9509 150.643 32.7727 152.627 34.2357 154.09C35.6986 155.553 37.6827 156.375 39.7516 156.375H70.9544C73.0233 156.375 75.0074 155.553 76.4704 154.09C77.9333 152.627 78.7551 150.643 78.7551 148.574V140.774H31.9509V148.574Z" fill="#0B7077"/>
</svg>
