<svg width="24" height="25" viewBox="0 0 24 25" fill="none" xmlns="http://www.w3.org/2000/svg">
<path d="M16.23 18.3618L12 15.8118L7.77 18.3618L8.89 13.5518L5.16 10.3218L10.08 9.90182L12 5.36182L13.92 9.89182L18.84 10.3118L15.11 13.5418L16.23 18.3618ZM12 2.36182C6.47 2.36182 2 6.86182 2 12.3618C2 15.014 3.05357 17.5575 4.92893 19.4329C5.85752 20.3615 6.95991 21.0981 8.17317 21.6006C9.38642 22.1032 10.6868 22.3618 12 22.3618C14.6522 22.3618 17.1957 21.3082 19.0711 19.4329C20.9464 17.5575 22 15.014 22 12.3618C22 11.0486 21.7413 9.74824 21.2388 8.53498C20.7362 7.32173 19.9997 6.21933 19.0711 5.29075C18.1425 4.36216 17.0401 3.62557 15.8268 3.12302C14.6136 2.62047 13.3132 2.36182 12 2.36182Z" fill="white"/>
</svg>
