<svg width="41" height="40" viewBox="0 0 41 40" fill="none" xmlns="http://www.w3.org/2000/svg">
<rect x="0.974609" width="40" height="40" rx="20" fill="#0B7077"/>
<g clip-path="url(#clip0_534_2177)">
<path d="M28.9746 13.0312C28.3809 13.3125 27.7559 13.4688 27.0996 13.5625C27.7559 13.1562 28.2871 12.5 28.5371 11.75C27.9121 12.125 27.1934 12.4062 26.4434 12.5312C25.8496 11.9062 25.0059 11.5 24.0371 11.5C22.2246 11.5 20.7871 12.9688 20.7871 14.7812C20.7871 15.0312 20.8184 15.2812 20.8496 15.5312C18.1309 15.4062 15.6934 14.0938 14.0996 12.0938C13.8184 12.5938 13.6309 13.1562 13.6309 13.75C13.6309 14.9062 14.2246 15.9062 15.0996 16.5C14.5684 16.4688 14.0684 16.3125 13.6309 16.0625C13.6309 16.0938 13.6309 16.0938 13.6309 16.125C13.6309 17.7188 14.7559 19.0312 16.2559 19.3438C15.9746 19.4062 15.6934 19.4375 15.3809 19.4375C15.1934 19.4375 14.9746 19.4062 14.7871 19.375C15.1934 20.6875 16.4121 21.625 17.8496 21.6562C16.7246 22.5625 15.2871 23.0625 13.7559 23.0625C13.5059 23.0625 13.2246 23.0625 12.9746 23.0312C14.4121 23.9688 16.1621 24.5 18.0059 24.5C24.0371 24.5 27.3496 19.5 27.3496 15.1562C27.3496 15.0312 27.3496 14.875 27.3184 14.75C27.9746 14.2812 28.5371 13.6875 28.9746 13.0312ZM26.4121 15.1562C26.4121 18.6562 23.7871 23.5625 18.0059 23.5625C17.5371 23.5625 17.0996 23.5312 16.6309 23.4375C17.2559 23.1875 17.8809 22.8438 18.4121 22.4062C18.7246 22.1562 18.8496 21.75 18.7246 21.375C18.5996 21 18.2559 20.7188 17.8496 20.7188C17.3496 20.7188 16.8496 20.5312 16.4746 20.25C16.9121 20.125 17.1934 19.75 17.1934 19.3125C17.1934 18.875 16.8809 18.5 16.4434 18.4062C15.8184 18.2812 15.3184 17.9062 14.9746 17.4375C15.0059 17.4375 15.0371 17.4375 15.0684 17.4375H15.0996C15.5059 17.4375 15.8809 17.1562 16.0059 16.7812C16.1309 16.375 15.9746 15.9375 15.6309 15.7188C15.0371 15.3125 14.6621 14.6875 14.5996 13.9688C16.3184 15.4688 18.5059 16.3438 20.8184 16.4688H20.8496C21.1309 16.4688 21.3809 16.3438 21.5684 16.1562C21.7559 15.9375 21.8184 15.625 21.7871 15.3438C21.7246 15.1562 21.7246 14.9688 21.7246 14.7812C21.7246 13.5 22.7559 12.4375 24.0371 12.4375C24.6934 12.4375 25.3184 12.7188 25.7559 13.1875C25.8809 13.3125 26.0059 13.375 26.1621 13.4375C26.1309 13.5625 26.1309 13.7188 26.1934 13.8438C26.2559 14.0312 26.3496 14.1875 26.5059 14.2812C26.4121 14.4375 26.3809 14.625 26.3809 14.8125C26.4121 14.9375 26.4121 15.0312 26.4121 15.1562Z" fill="white"/>
</g>
<defs>
<clipPath id="clip0_534_2177">
<rect width="16" height="16" fill="white" transform="matrix(1 0 0 -1 12.9746 26)"/>
</clipPath>
</defs>
</svg>
