<svg width="33" height="33" viewBox="0 0 33 33" fill="none" xmlns="http://www.w3.org/2000/svg">
<rect x="0.726196" y="0.711914" width="32" height="32" rx="16" fill="#26FFDA"/>
<path d="M23.0815 13.4529C23.0917 13.595 23.0917 13.7372 23.0917 13.8793C23.0917 18.2143 19.7922 23.2093 13.7617 23.2093C11.9039 23.2093 10.178 22.6712 8.7262 21.7372C8.99017 21.7676 9.24395 21.7778 9.51807 21.7778C11.051 21.7778 12.4622 21.26 13.5891 20.3768C12.1475 20.3463 10.9394 19.4022 10.5231 18.1027C10.7262 18.1331 10.9292 18.1534 11.1424 18.1534C11.4369 18.1534 11.7313 18.1128 12.0054 18.0418C10.5029 17.7372 9.37592 16.4174 9.37592 14.8235V14.7829C9.81245 15.0265 10.3201 15.1788 10.8581 15.1991C9.97488 14.6103 9.39623 13.6052 9.39623 12.4681C9.39623 11.859 9.55863 11.3006 9.84292 10.8133C11.4571 12.8032 13.8835 14.1026 16.6043 14.2448C16.5536 14.0011 16.5231 13.7474 16.5231 13.4935C16.5231 11.6864 17.985 10.2144 19.8023 10.2144C20.7464 10.2144 21.5992 10.6103 22.1982 11.2499C22.9393 11.1078 23.65 10.8336 24.2794 10.458C24.0358 11.2194 23.518 11.859 22.8378 12.2651C23.4977 12.1941 24.1373 12.0113 24.7261 11.7575C24.2795 12.4072 23.7211 12.9859 23.0815 13.4529Z" fill="#0B7077"/>
</svg>
