<svg width="55" height="62" viewBox="0 0 55 62" fill="none" xmlns="http://www.w3.org/2000/svg">
<path d="M33.7034 1.97536C31.7581 1.07853 29.6121 0.544739 27.3301 0.544739C20.9186 0.544739 15.448 4.50104 13.1779 10.0981H22.8734L33.7034 1.97536ZM41.4822 10.0981C40.5388 7.77308 39.0139 5.77522 37.1247 4.18458L29.2396 10.0981H41.4822ZM27.3301 31.1156C35.7717 31.1156 42.6155 24.2718 42.6155 15.8302C42.6155 15.1758 42.5021 14.5524 42.4233 13.9195H12.2369C12.1569 14.5524 12.0446 15.1758 12.0446 15.8302C12.0446 24.2718 18.8885 31.1156 27.3301 31.1156ZM10.134 36.3342V61.6865H25.4504L13.6938 35.2331C12.4681 35.459 11.2732 35.8286 10.134 36.3342ZM0.580566 55.9544C0.580566 59.1202 3.14685 61.6865 6.3126 61.6865V38.787C2.83517 41.7306 0.580566 46.0738 0.580566 50.9867V55.9544ZM31.1514 50.2224H24.5381L29.6336 61.6865H31.1514C34.3124 61.6865 36.8835 59.1154 36.8835 55.9544C36.8835 52.7935 34.3124 50.2224 31.1514 50.2224ZM38.0299 34.937H36.0344C33.3786 36.1526 30.4361 36.8476 27.3301 36.8476C24.224 36.8476 21.2816 36.1526 18.6257 34.937H17.7456L22.8412 46.401H31.1514C36.4189 46.401 40.7048 50.6869 40.7048 55.9544C40.7048 58.1135 39.9573 60.0851 38.7452 61.6865H48.3476C51.5133 61.6865 54.0796 59.1202 54.0796 55.9544V50.9867C54.0796 42.1223 46.8942 34.937 38.0299 34.937Z" fill="white"/>
</svg>
