<svg width="53" height="60" viewBox="0 0 53 60" fill="none" xmlns="http://www.w3.org/2000/svg">
<path d="M45.176 36.1576L47.9608 28.8635C48.4269 27.6401 47.5297 26.3351 46.213 26.3351H39.3967C40.6784 24.1329 41.4707 21.6044 41.4707 18.8779V18.8429C46.0382 17.9341 48.9279 16.6174 48.9279 15.1493C48.9279 13.5995 45.747 12.2246 40.7599 11.3041C39.688 7.4823 37.6139 3.63717 36.0293 1.65635C34.9223 0.269768 33.0114 -0.161352 31.4268 0.630978L28.2108 2.23894C27.1622 2.76328 25.9271 2.76328 24.8784 2.23894L21.6625 0.630978C20.0778 -0.161352 18.1669 0.269768 17.06 1.65635C15.4869 3.63717 13.4013 7.4823 12.3293 11.3041C7.35392 12.2246 4.17295 13.5995 4.17295 15.1493C4.17295 16.6174 7.06262 17.9341 11.6302 18.8429V18.8779C11.6302 21.6044 12.4225 24.1329 13.7042 26.3351H7.00436C5.66439 26.3351 4.76719 27.6984 5.29153 28.9335L8.29772 35.9479C3.62531 38.6628 0.444336 43.6615 0.444336 49.4525V54.6725C0.444336 57.5505 2.78637 59.8926 5.66439 59.8926H47.4248C50.3028 59.8926 52.6449 57.5505 52.6449 54.6725V49.4525C52.6449 43.8129 49.6387 38.9191 45.176 36.1576ZM20.9517 56.164L16.1045 33.7923L21.8838 37.5209L24.6803 42.1817L20.9517 56.164ZM32.1375 56.164L28.4089 42.1817L31.2054 37.5209L36.9847 33.7923L32.1375 56.164ZM36.9964 21.383C36.5419 22.7696 36.1807 24.2494 35.0738 25.2748C33.897 26.3584 29.4809 27.8848 27.6166 22.3618C27.2903 21.383 25.8222 21.383 25.4843 22.3618C23.5035 28.211 18.9592 26.137 18.0271 25.2748C16.9201 24.2494 16.5473 22.7696 16.1045 21.383C16.0113 21.0917 15.3704 20.7189 15.3704 20.7072V19.4488C18.6679 19.8683 22.4781 20.1246 26.5563 20.1246C30.6344 20.1246 34.4446 19.8799 37.7421 19.4488V20.7072C37.7304 20.7189 37.0896 21.0801 36.9964 21.383Z" fill="white"/>
</svg>
